<svg class="animated" id="freepik_stories-cleaning-service" xmlns="http://www.w3.org/2000/svg" viewBox="0 0 750 500" version="1.1" xmlns:xlink="http://www.w3.org/1999/xlink" xmlns:svgjs="http://svgjs.com/svgjs"><style>svg#freepik_stories-cleaning-service:not(.animated) .animable {opacity: 0;}svg#freepik_stories-cleaning-service.animated #freepik--background-complete--inject-2 {animation: 1s 1 forwards cubic-bezier(.36,-0.01,.5,1.38) zoomOut;animation-delay: 0s;}svg#freepik_stories-cleaning-service.animated #freepik--Shadow--inject-2 {animation: 1s 1 forwards cubic-bezier(.36,-0.01,.5,1.38) slideUp;animation-delay: 0s;}svg#freepik_stories-cleaning-service.animated #freepik--Windows--inject-2 {animation: 1s 1 forwards cubic-bezier(.36,-0.01,.5,1.38) slideDown;animation-delay: 0s;}svg#freepik_stories-cleaning-service.animated #freepik--Cleaning_Trolley--inject-2 {animation: 1s 1 forwards cubic-bezier(.36,-0.01,.5,1.38) lightSpeedLeft;animation-delay: 0s;}svg#freepik_stories-cleaning-service.animated #freepik--Character_2--inject-2 {animation: 1s 1 forwards linear slideDown,1.5s Infinite  linear wind;animation-delay: 0s,1s;}svg#freepik_stories-cleaning-service.animated #freepik--Desk--inject-2 {animation: 1s 1 forwards cubic-bezier(.36,-0.01,.5,1.38) lightSpeedRight;animation-delay: 0s;}svg#freepik_stories-cleaning-service.animated #freepik--Plant--inject-2 {animation: 1s 1 forwards cubic-bezier(.36,-0.01,.5,1.38) lightSpeedRight;animation-delay: 0s;}svg#freepik_stories-cleaning-service.animated #freepik--Character_1--inject-2 {animation: 1s 1 forwards ease-in zoomIn,1.5s Infinite  linear floating;animation-delay: 0s,1s;}            @keyframes zoomOut {                0% {                    opacity: 0;                    transform: scale(1.5);                }                100% {                    opacity: 1;                    transform: scale(1);                }            }                    @keyframes slideUp {                0% {                    opacity: 0;                    transform: translateY(30px);                }                100% {                    opacity: 1;                    transform: inherit;                }            }                    @keyframes slideDown {                0% {                    opacity: 0;                    transform: translateY(-30px);                }                100% {                    opacity: 1;                    transform: translateY(0);                }            }                    @keyframes lightSpeedLeft {              from {                transform: translate3d(-50%, 0, 0) skewX(20deg);                opacity: 0;              }              60% {                transform: skewX(-10deg);                opacity: 1;              }              80% {                transform: skewX(2deg);              }              to {                opacity: 1;                transform: translate3d(0, 0, 0);              }            }                    @keyframes wind {                0% {                    transform: rotate( 0deg );                }                25% {                    transform: rotate( 1deg );                }                75% {                    transform: rotate( -1deg );                }            }                    @keyframes lightSpeedRight {              from {                transform: translate3d(50%, 0, 0) skewX(-20deg);                opacity: 0;              }              60% {                transform: skewX(10deg);                opacity: 1;              }              80% {                transform: skewX(-2deg);              }              to {                opacity: 1;                transform: translate3d(0, 0, 0);              }            }                    @keyframes zoomIn {                0% {                    opacity: 0;                    transform: scale(0.5);                }                100% {                    opacity: 1;                    transform: scale(1);                }            }                    @keyframes floating {                0% {                    opacity: 1;                    transform: translateY(0px);                }                50% {                    transform: translateY(-10px);                }                100% {                    opacity: 1;                    transform: translateY(0px);                }            }        </style><g id="freepik--background-complete--inject-2" class="animable" style="transform-origin: 375px 232.825px;"><g id="eleaqsrtq17rn" class="animable" style="transform-origin: 158.955px 142.545px;"><rect x="130.43" y="73.26" width="73.5" height="138.57" style="fill: rgb(230, 230, 230); transform-origin: 167.18px 142.545px;" id="el6cneijes357" class="animable"></rect><rect x="113.98" y="73.26" width="86.34" height="138.57" style="fill: rgb(240, 240, 240); transform-origin: 157.15px 142.545px;" id="elo8nl5w7nwzf" class="animable"></rect><rect x="127.11" y="85.57" width="60.06" height="113.96" style="fill: rgb(255, 255, 255); transform-origin: 157.14px 142.55px;" id="el0lh4an6xwpa" class="animable"></rect><rect x="149.68" y="124.14" width="19.39" height="29.73" style="fill: rgb(224, 224, 224); transform-origin: 159.375px 139.005px;" id="elz9g0g4nlsk" class="animable"></rect></g><g id="elkqmk1twbvi" class="animable" style="transform-origin: 70.4px 323.37px;"><g id="eli3rx3mpr04" class="animable" style="transform-origin: 70.4px 323.37px;"><path d="M80.52,317.58c2.96-3.65,8.68-6.08,14.96-7.25-.49,1.8-.12,3.45,.94,3.86,1.18,.45,2.77-.82,3.55-2.84,.22-.57,.34-1.14,.39-1.67,6.33-.51,12.66,.21,16.89,2.24,0,0-4.14,3.73-8.82,13.53-.14,0-.29,0-.43,0-3.03,.03-5.48,1.5-5.46,3.27,.01,1.3,1.34,2.4,3.23,2.89-.25,.63-.49,1.27-.74,1.93-4.46,12.08-16.37,3.35-16.27-4.92,0,0-14.87-2.86-8.24-11.03Z" style="fill: rgb(230, 230, 230); transform-origin: 98.0336px 324.506px;" id="el0s33o6lnb2vh" class="animable"></path><g id="el3zxm40xliig" class="animable" style="transform-origin: 64.885px 323.37px;"><path d="M65.85,301.98c-3.65-3.94-10.35-6.28-17.6-7.15,.7,2.01,.4,3.93-.78,4.47-1.32,.61-3.22-.73-4.26-2.97-.29-.63-.47-1.27-.57-1.88-7.26-.11-14.42,1.19-19.09,3.82,0,0,5,3.94,11.07,14.77,.16-.02,.33-.03,.5-.04,3.46-.19,6.36,1.29,6.47,3.32,.08,1.48-1.35,2.84-3.47,3.53,.33,.7,.66,1.41,.98,2.15,5.99,13.44,18.92,2.59,18.18-6.83,0,0,16.74-4.37,8.57-13.19Z" style="fill: rgb(230, 230, 230); transform-origin: 45.8234px 311.37px;" id="eldz55jygpvwm" class="animable"></path><path d="M56.99,299.03c1.55-7.56,8.04-15.44,16.31-21.91,.64,2.99,2.44,5.13,4.29,4.92,2.07-.24,3.42-3.29,3.02-6.83-.11-1-.37-1.91-.7-2.73,8.84-5.55,18.62-9.29,26.31-9.53,0,0-3.2,8.57-2.6,26.41-.21,.1-.43,.2-.64,.32-4.4,2.34-6.85,6.33-5.48,8.9,1,1.88,3.77,2.48,6.9,1.76,.12,1.1,.24,2.22,.39,3.37,2.65,20.99-21.33,17.29-27.44,5.16,0,0-23.84,7.11-20.37-9.83Z" style="fill: rgb(235, 235, 235); transform-origin: 81.4274px 290.833px;" id="elmdrn6sud28j" class="animable"></path><path d="M73.9,346.99c-4.01-22.3,1.98-46.21,16.04-63.98l.59,.46c-13.92,17.6-19.86,41.3-15.89,63.38l-.74,.13Z" style="fill: rgb(224, 224, 224); transform-origin: 81.604px 315px;" id="el4g4m8prj4qv" class="animable"></path><path d="M73.18,339.34s-.08,0-.11-.02c-.11-.04-.2-.12-.24-.24-2.83-8.31-12.41-26.21-28.35-34.49-.18-.1-.26-.32-.16-.51,.1-.18,.32-.25,.51-.16,15.86,8.23,25.49,25.83,28.55,34.43,2.95-2.13,21.03-15.18,30.06-20.97,.17-.11,.41-.06,.52,.11,.11,.17,.06,.41-.11,.52-9.78,6.27-30.23,21.09-30.44,21.24-.06,.05-.14,.07-.22,.07Z" style="fill: rgb(224, 224, 224); transform-origin: 74.1474px 321.61px;" id="el1i3k6oupyel" class="animable"></path><g id="ell6igaem9j4" class="animable" style="transform-origin: 73.67px 364.28px;"><polygon points="98.9 354.02 48.44 354.02 48.46 344.77 98.85 344.77 98.9 354.02" style="fill: rgb(224, 224, 224); transform-origin: 73.67px 349.395px;" id="elu3u34qbhr6" class="animable"></polygon><polygon points="52.1 351 59.98 383.79 89.01 383.79 96.04 351 52.1 351" style="fill: rgb(224, 224, 224); transform-origin: 74.07px 367.395px;" id="elspdm87q1yd" class="animable"></polygon></g></g></g><path d="M55.75,343.13h-4.49c-.14,0-.25-.11-.25-.25s.11-.25,.25-.25h4.49c.14,0,.25,.11,.25,.25s-.11,.25-.25,.25Z" style="fill: rgb(224, 224, 224); transform-origin: 53.505px 342.88px;" id="elg4wj06imk0p" class="animable"></path><path d="M70.09,343.13h-12.28c-.14,0-.25-.11-.25-.25s.11-.25,.25-.25h12.28c.14,0,.25,.11,.25,.25s-.11,.25-.25,.25Z" style="fill: rgb(224, 224, 224); transform-origin: 63.95px 342.88px;" id="el1sl0jk2joht" class="animable"></path></g><g id="el32vn5q2vvnr" class="animable" style="transform-origin: 456.96px 329.25px;"><g id="elcue8qydf2hq" class="animable" style="transform-origin: 456.96px 329.25px;"><path d="M466.1,324.02c2.67-3.29,7.84-5.49,13.5-6.55-.44,1.62-.11,3.12,.85,3.48,1.07,.41,2.5-.74,3.2-2.56,.2-.52,.31-1.03,.35-1.51,5.72-.46,11.43,.19,15.25,2.02,0,0-3.73,3.37-7.96,12.22-.13,0-.26,0-.39,0-2.74,.03-4.94,1.35-4.93,2.95,.01,1.17,1.21,2.17,2.92,2.61-.22,.57-.44,1.14-.67,1.74-4.03,10.91-14.78,3.02-14.68-4.44,0,0-13.42-2.58-7.44-9.96Z" style="fill: rgb(230, 230, 230); transform-origin: 481.907px 330.265px;" id="elm7n2f7re7i" class="animable"></path><g id="ellu8qjoh9o4l" class="animable" style="transform-origin: 451.99px 329.25px;"><path d="M452.85,309.95c-3.29-3.55-9.34-5.67-15.89-6.45,.63,1.82,.36,3.55-.71,4.04-1.19,.55-2.91-.65-3.84-2.68-.26-.57-.43-1.15-.51-1.69-6.55-.1-13.02,1.08-17.23,3.45,0,0,4.51,3.56,9.99,13.33,.15-.02,.3-.03,.45-.04,3.12-.17,5.74,1.17,5.84,3,.07,1.34-1.22,2.56-3.13,3.19,.3,.63,.59,1.27,.89,1.94,5.41,12.13,17.08,2.34,16.41-6.16,0,0,15.11-3.94,7.73-11.91Z" style="fill: rgb(230, 230, 230); transform-origin: 434.775px 318.444px;" id="eljp6bqawb9n" class="animable"></path><path d="M444.86,307.28c1.4-6.82,7.26-13.94,14.72-19.78,.58,2.7,2.2,4.63,3.88,4.44,1.87-.21,3.09-2.97,2.73-6.16-.1-.9-.33-1.73-.63-2.46,7.98-5.01,16.81-8.38,23.75-8.61,0,0-2.89,7.74-2.35,23.84-.19,.09-.39,.18-.58,.29-3.97,2.11-6.18,5.71-4.94,8.04,.9,1.7,3.4,2.24,6.23,1.59,.11,.99,.22,2,.35,3.04,2.39,18.95-19.25,15.61-24.77,4.65,0,0-21.52,6.42-18.38-8.88Z" style="fill: rgb(235, 235, 235); transform-origin: 466.934px 299.883px;" id="elqa95i33u2pb" class="animable"></path><path d="M460.08,350.58c-3.62-20.13,1.79-41.74,14.48-57.78l.59,.46c-12.56,15.88-17.92,37.26-14.33,57.18l-.74,.13Z" style="fill: rgb(224, 224, 224); transform-origin: 467.064px 321.69px;" id="el4mti28db0gx" class="animable"></path><path d="M459.47,343.7s-.08,0-.11-.02c-.11-.04-.2-.12-.24-.24-2.56-7.49-11.19-23.64-25.58-31.11-.18-.1-.26-.32-.16-.51,.1-.18,.32-.25,.51-.16,14.3,7.42,22.99,23.27,25.77,31.05,2.78-2.01,18.98-13.7,27.1-18.9,.17-.11,.41-.06,.52,.11,.11,.17,.06,.41-.11,.52-8.83,5.66-27.29,19.04-27.47,19.17-.07,.05-.14,.07-.22,.07Z" style="fill: rgb(224, 224, 224); transform-origin: 460.337px 327.66px;" id="elkogdebj6dh" class="animable"></path><g id="el2h3i5v8yim4" class="animable" style="transform-origin: 459.91px 366.18px;"><polygon points="482.68 356.91 437.14 356.91 437.16 348.57 482.64 348.57 482.68 356.91" style="fill: rgb(224, 224, 224); transform-origin: 459.91px 352.74px;" id="eli93938yuac" class="animable"></polygon><polygon points="440.44 354.19 447.56 383.79 473.76 383.79 480.1 354.19 440.44 354.19" style="fill: rgb(224, 224, 224); transform-origin: 460.27px 368.99px;" id="elvz4ujayeb8b" class="animable"></polygon></g></g></g><path d="M443.73,347.11h-4.05c-.14,0-.25-.11-.25-.25s.11-.25,.25-.25h4.05c.14,0,.25,.11,.25,.25s-.11,.25-.25,.25Z" style="fill: rgb(224, 224, 224); transform-origin: 441.705px 346.86px;" id="eljvtoq86pqc9" class="animable"></path><path d="M456.68,347.11h-11.09c-.14,0-.25-.11-.25-.25s.11-.25,.25-.25h11.09c.14,0,.25,.11,.25,.25s-.11,.25-.25,.25Z" style="fill: rgb(224, 224, 224); transform-origin: 451.135px 346.86px;" id="elamki8pyshl5" class="animable"></path></g><g id="eltde18fcrk4" class="animable" style="transform-origin: 676.885px 327.355px;"><g id="elaoauwo9660q" class="animable" style="transform-origin: 676.885px 327.355px;"><path d="M686.34,321.95c2.76-3.41,8.11-5.68,13.97-6.78-.46,1.68-.12,3.23,.88,3.61,1.11,.42,2.59-.76,3.31-2.65,.2-.53,.32-1.06,.36-1.56,5.91-.48,11.83,.2,15.78,2.09,0,0-3.86,3.48-8.24,12.64-.13,0-.27,0-.41,0-2.83,.03-5.12,1.4-5.1,3.06,.01,1.21,1.25,2.24,3.02,2.7-.23,.59-.46,1.18-.69,1.8-4.17,11.28-15.29,3.13-15.19-4.6,0,0-13.89-2.67-7.69-10.3Z" style="fill: rgb(230, 230, 230); transform-origin: 702.693px 328.418px;" id="elbriqmmuc0i9" class="animable"></path><g id="elsw57rxjnqa" class="animable" style="transform-origin: 671.745px 327.355px;"><path d="M672.64,307.38c-3.41-3.68-9.67-5.87-16.44-6.68,.65,1.88,.37,3.67-.73,4.18-1.23,.57-3.01-.68-3.98-2.78-.27-.59-.44-1.19-.53-1.75-6.78-.11-13.47,1.11-17.83,3.57,0,0,4.67,3.68,10.34,13.8,.15-.02,.31-.03,.46-.04,3.23-.18,5.94,1.21,6.04,3.1,.08,1.38-1.26,2.65-3.24,3.3,.31,.65,.61,1.31,.92,2,5.6,12.55,17.67,2.42,16.98-6.38,0,0,15.64-4.08,8-12.32Z" style="fill: rgb(230, 230, 230); transform-origin: 653.931px 316.151px;" id="elyy3629l04cf" class="animable"></path><path d="M664.37,304.62c1.45-7.06,7.51-14.42,15.23-20.46,.6,2.79,2.28,4.79,4.01,4.59,1.93-.22,3.2-3.08,2.82-6.38-.11-.93-.34-1.79-.65-2.55,8.25-5.18,17.39-8.67,24.58-8.9,0,0-2.99,8-2.43,24.67-.2,.09-.4,.19-.6,.3-4.11,2.19-6.4,5.91-5.12,8.32,.94,1.76,3.52,2.32,6.45,1.64,.11,1.03,.23,2.07,.36,3.15,2.48,19.61-19.92,16.15-25.63,4.82,0,0-22.26,6.64-19.02-9.18Z" style="fill: rgb(235, 235, 235); transform-origin: 687.204px 296.969px;" id="eleib3jcpgyq7" class="animable"></path><path d="M680.13,349.42c-3.75-20.83,1.85-43.18,14.99-59.78l.59,.46c-13,16.43-18.54,38.56-14.83,59.18l-.74,.13Z" style="fill: rgb(224, 224, 224); transform-origin: 687.348px 319.53px;" id="eldpov8njhlni" class="animable"></path><path d="M679.49,342.3s-.08,0-.11-.02c-.11-.04-.2-.12-.24-.24-2.65-7.76-11.58-24.47-26.47-32.2-.18-.1-.26-.32-.16-.51,.1-.18,.32-.25,.51-.16,14.8,7.68,23.79,24.1,26.67,32.14,2.83-2.05,19.64-14.18,28.05-19.57,.17-.11,.41-.06,.52,.11,.11,.17,.06,.41-.11,.52-9.14,5.86-28.23,19.7-28.42,19.84-.07,.05-.14,.07-.22,.07Z" style="fill: rgb(224, 224, 224); transform-origin: 680.393px 325.715px;" id="ele0dp59jo3iq" class="animable"></path><g id="elqrm7hrhlcl" class="animable" style="transform-origin: 679.94px 365.57px;"><polygon points="703.5 355.98 656.38 355.98 656.4 347.35 703.46 347.35 703.5 355.98" style="fill: rgb(224, 224, 224); transform-origin: 679.94px 351.665px;" id="els59fj41quvq" class="animable"></polygon><polygon points="659.8 353.17 667.16 383.79 694.27 383.79 700.84 353.17 659.8 353.17" style="fill: rgb(224, 224, 224); transform-origin: 680.32px 368.48px;" id="el4f9uhvq2g6u" class="animable"></polygon></g></g></g><path d="M663.2,345.83h-4.19c-.14,0-.25-.11-.25-.25s.11-.25,.25-.25h4.19c.14,0,.25,.11,.25,.25s-.11,.25-.25,.25Z" style="fill: rgb(224, 224, 224); transform-origin: 661.105px 345.58px;" id="elb9hb7ic3qt" class="animable"></path><path d="M676.6,345.83h-11.47c-.14,0-.25-.11-.25-.25s.11-.25,.25-.25h11.47c.14,0,.25,.11,.25,.25s-.11,.25-.25,.25Z" style="fill: rgb(224, 224, 224); transform-origin: 670.865px 345.58px;" id="elzykmnhezg4o" class="animable"></path></g><g id="eld5kt8cc9png" class="animable" style="transform-origin: 375px 232.825px;"><g id="eltl068hb2k4d" class="animable" style="transform-origin: 375px 215.7px;"><g id="elr6vtx9qtj6" class="animable" style="transform-origin: 375px 185.105px;"><g id="el18g6e7f1xih" class="animable" style="transform-origin: 479.145px 185.105px;"><path d="M673.73,322.6h-180.75c-3.23,0-5.86-2.63-5.86-5.86V53.47c0-3.23,2.63-5.86,5.86-5.86h180.75c3.23,0,5.86,2.63,5.86,5.86V316.74c0,3.23-2.63,5.86-5.86,5.86ZM492.99,47.86c-3.09,0-5.61,2.52-5.61,5.61V316.74c0,3.09,2.52,5.61,5.61,5.61h180.75c3.09,0,5.61-2.52,5.61-5.61V53.47c0-3.09-2.52-5.61-5.61-5.61h-180.75Z" style="fill: rgb(224, 224, 224); transform-origin: 583.355px 185.105px;" id="elxq5r025xqns" class="animable"></path><path d="M465.31,322.6h-180.75c-3.23,0-5.86-2.63-5.86-5.86V53.47c0-3.23,2.63-5.86,5.86-5.86h180.75c3.23,0,5.86,2.63,5.86,5.86V316.74c0,3.23-2.63,5.86-5.86,5.86ZM284.56,47.86c-3.09,0-5.61,2.52-5.61,5.61V316.74c0,3.09,2.52,5.61,5.61,5.61h180.75c3.09,0,5.61-2.52,5.61-5.61V53.47c0-3.09-2.52-5.61-5.61-5.61h-180.75Z" style="fill: rgb(224, 224, 224); transform-origin: 374.935px 185.105px;" id="elyns9xqdvuc" class="animable"></path></g><path d="M257.01,322.6H76.27c-3.23,0-5.86-2.63-5.86-5.86V53.47c0-3.23,2.63-5.86,5.86-5.86h180.75c3.23,0,5.86,2.63,5.86,5.86V316.74c0,3.23-2.63,5.86-5.86,5.86ZM76.27,47.86c-3.09,0-5.61,2.52-5.61,5.61V316.74c0,3.09,2.52,5.61,5.61,5.61h180.75c3.09,0,5.61-2.52,5.61-5.61V53.47c0-3.09-2.52-5.61-5.61-5.61H76.27Z" style="fill: rgb(224, 224, 224); transform-origin: 166.645px 185.105px;" id="el9kjkpahmlda" class="animable"></path></g><rect y="383.67" width="750" height=".12" style="fill: rgb(224, 224, 224); transform-origin: 375px 383.73px;" id="elhrsbub0lp16" class="animable"></rect></g><g id="elx5w7ms7acg" class="animable" style="transform-origin: 375px 409.145px;"><rect x="653.63" y="413.05" width="55.73" height=".42" style="fill: rgb(235, 235, 235); transform-origin: 681.495px 413.26px;" id="elxrsh19yy27p" class="animable"></rect><rect x="495.04" y="417.62" width="14.63" height=".42" style="fill: rgb(235, 235, 235); transform-origin: 502.355px 417.83px;" id="el6ldgm8iac2v" class="animable"></rect><rect x="40.64" y="400.25" width="72.67" height=".42" style="fill: rgb(235, 235, 235); transform-origin: 76.975px 400.46px;" id="elowjhzk6977l" class="animable"></rect><rect x="128.3" y="400.25" width="10.66" height=".42" style="fill: rgb(235, 235, 235); transform-origin: 133.63px 400.46px;" id="elca97m4nvywo" class="animable"></rect><rect x="173.59" y="407.36" width="157.61" height=".42" style="fill: rgb(235, 235, 235); transform-origin: 252.395px 407.57px;" id="elavvsrdu4p4e" class="animable"></rect></g></g></g><g id="freepik--Shadow--inject-2" class="animable" style="transform-origin: 335.87px 453.47px;"><path d="M583.81,453.47c0,3.39-111.01,6.13-247.94,6.13s-247.94-2.75-247.94-6.13,111.01-6.13,247.94-6.13,247.94,2.75,247.94,6.13Z" style="fill: rgb(245, 245, 245); transform-origin: 335.87px 453.47px;" id="elufa05faf2ys" class="animable"></path></g><g id="freepik--Windows--inject-2" class="animable" style="transform-origin: 482.64px 163.045px;"><g id="elvvulc63ptd" class="animable" style="transform-origin: 587.67px 163.445px;"><rect x="521.89" y="69.16" width="131.55" height="188.57" style="fill: rgb(64, 123, 255); transform-origin: 587.665px 163.445px;" id="elvgwiz5aghng" class="animable"></rect><g id="elkof7a2925aq"><rect x="521.89" y="69.16" width="131.55" height="188.57" style="fill: rgb(255, 255, 255); opacity: 0.8; transform-origin: 587.665px 163.445px;" class="animable"></rect></g><g id="el55du9h73iqw"><path d="M564.8,69.16c-23.53,14.84-42.52,26.72-42.52,26.72v38.49l104.79-65.21h-62.27Z" style="fill: rgb(255, 255, 255); opacity: 0.8; transform-origin: 574.675px 101.765px;" class="animable"></path></g><g id="el3rg6ixe2bf2"><path d="M653.44,69.16h-9.36c-30,20.13-121.79,77.53-121.79,77.53v15.96l131.16-81.61v-11.88Z" style="fill: rgb(255, 255, 255); opacity: 0.8; transform-origin: 587.87px 115.905px;" class="animable"></path></g></g><g id="eluqcork5wc89" class="animable" style="transform-origin: 377.605px 162.645px;"><rect x="311.83" y="68.36" width="131.55" height="188.57" style="fill: rgb(64, 123, 255); transform-origin: 377.605px 162.645px;" id="el84xez5iudkj" class="animable"></rect><g id="eltwzmicvxz9d"><rect x="311.83" y="68.36" width="131.55" height="188.57" style="fill: rgb(255, 255, 255); opacity: 0.8; transform-origin: 377.605px 162.645px;" class="animable"></rect></g><g id="elnfn2fkzcum"><path d="M443.38,68.36c0,2.34-131.16,84.36-131.16,84.36v38.49l131.16-81.61v-41.23Z" style="fill: rgb(255, 255, 255); opacity: 0.8; transform-origin: 377.8px 129.785px;" class="animable"></path></g><g id="elbvpw1ev1bk"><path d="M443.38,122.39c0,2.34-131.16,84.36-131.16,84.36v15.96l131.16-81.61v-18.7Z" style="fill: rgb(255, 255, 255); opacity: 0.8; transform-origin: 377.8px 172.55px;" class="animable"></path></g></g></g><g id="freepik--Cleaning_Trolley--inject-2" class="animable" style="transform-origin: 155.15px 339.498px;"><g id="elqctdkhan0pd" class="animable" style="transform-origin: 155.15px 339.498px;"><g id="elghtyqpwzilq" class="animable" style="transform-origin: 191.794px 281.788px;"><g id="elpubdd46tz0e" class="animable" style="transform-origin: 210.025px 263.9px;"><polygon points="187.64 237.84 184.5 221.83 215.73 221.83 218.23 227.23 218.23 221.83 223.41 221.83 224.12 228.7 226.09 221.83 235.55 221.83 231.36 237.34 187.64 237.84" style="fill: rgb(64, 123, 255); transform-origin: 210.025px 229.835px;" id="elo0jd78q3uhf" class="animable"></polygon><g id="elj2dy8dub6pb"><polygon points="187.64 237.84 184.5 221.83 215.73 221.83 218.23 227.23 218.23 221.83 223.41 221.83 224.12 228.7 226.09 221.83 235.55 221.83 231.36 237.34 187.64 237.84" style="fill: rgb(255, 255, 255); opacity: 0.3; transform-origin: 210.025px 229.835px;" class="animable"></polygon></g><g id="el6fj9uby15wa" class="animable" style="transform-origin: 210.105px 271.655px;"><rect x="205.16" y="242.27" width="4.95" height="63.7" style="fill: rgb(38, 50, 56); transform-origin: 207.635px 274.12px;" id="ell8nqz0fnez8" class="animable"></rect><rect x="186.75" y="237.34" width="46.71" height="4.92" style="fill: rgb(38, 50, 56); transform-origin: 210.105px 239.8px;" id="elufk535l6fts" class="animable"></rect></g></g><g id="elcfot7ukzvnu" class="animable" style="transform-origin: 169.184px 281.788px;"><path d="M190.33,257.24c-4.67-.15-8.17-4.52-9.59-8.97-1.42-4.45-1.45-9.25-2.87-13.7-1.83-5.71-6.21-10.75-11.93-12.55-5.72-1.8-12.64,.11-16,5.08-3.36,4.97-2.19,12.68,2.9,15.85l2.41,8.07c6.05,10.42,19.93,15.53,31.29,11.51-1.09-1.38-2.19-2.76-3.28-4.14,2.35,.8,5.08,.35,7.06-1.15Z" style="fill: rgb(38, 50, 56); transform-origin: 169.184px 242.628px;" id="el1qms280gyd7" class="animable"></path><rect x="155.64" y="243.42" width="3.31" height="98.8" style="fill: rgb(38, 50, 56); transform-origin: 157.295px 292.82px;" id="el9w9rzirpzqa" class="animable"></rect><g id="el3nd6hjd6nm8"><rect x="155.64" y="243.42" width="3.31" height="98.8" style="fill: rgb(255, 255, 255); opacity: 0.4; transform-origin: 157.295px 292.82px;" class="animable"></rect></g><path d="M153.63,243.42s-1.8-.73-2.92-2.31c0,0,13.35,.17,13.18,0s-1.17,1.86-3.64,2.31h-6.63Z" style="fill: rgb(64, 123, 255); transform-origin: 157.301px 242.26px;" id="els2qyrc4l7" class="animable"></path><path d="M190.33,257.24c-4.67-.15-8.17-4.52-9.59-8.97-1.42-4.45-1.45-9.25-2.87-13.7-1.83-5.71-6.21-10.75-11.93-12.55-5.72-1.8-12.64,.11-16,5.08-3.36,4.97-2.19,12.68,2.9,15.85l2.41,8.07c6.05,10.42,19.93,15.53,31.29,11.51-1.09-1.38-2.19-2.76-3.28-4.14,2.35,.8,5.08,.35,7.06-1.15Z" style="fill: rgb(255, 255, 255); transform-origin: 169.184px 242.628px;" id="el522dxgtb1kl" class="animable"></path></g></g><g id="el6058b2bvcs3" class="animable" style="transform-origin: 119.319px 267.7px;"><path d="M128.47,249.82c-1.89-.03-4.42-.04-6.92,0-3.98,.05-7.39,2.85-8.22,6.74l-2.78,13.03-3.45,19.9c-.23,1.34,.8,2.56,2.15,2.56h18.92c1.88,0,3.4-1.52,3.4-3.4v-35.68c0-1.72-1.38-3.12-3.1-3.15Zm-8.64,12.81l-2.41,12.52c-.3,1.53-1.78,2.54-3.31,2.24-1.53-.3-2.54-1.78-2.24-3.31l2.41-12.52c.3-1.53,1.78-2.54,3.31-2.24,1.53,.3,2.54,1.78,2.24,3.31Z" style="fill: rgb(64, 123, 255); transform-origin: 119.319px 270.922px;" id="elllw06bpbltd" class="animable"></path><g id="elxj6v9afe"><path d="M128.47,249.82c-1.89-.03-4.42-.04-6.92,0-3.98,.05-7.39,2.85-8.22,6.74l-2.78,13.03-3.45,19.9c-.23,1.34,.8,2.56,2.15,2.56h18.92c1.88,0,3.4-1.52,3.4-3.4v-35.68c0-1.72-1.38-3.12-3.1-3.15Zm-8.64,12.81l-2.41,12.52c-.3,1.53-1.78,2.54-3.31,2.24-1.53-.3-2.54-1.78-2.24-3.31l2.41-12.52c.3-1.53,1.78-2.54,3.31-2.24,1.53,.3,2.54,1.78,2.24,3.31Z" style="fill: rgb(255, 255, 255); opacity: 0.3; transform-origin: 119.319px 270.922px;" class="animable"></path></g><rect x="120.73" y="243.35" width="8.84" height="6.44" style="fill: rgb(38, 50, 56); transform-origin: 125.15px 246.57px;" id="el3f30egzzcgp" class="animable"></rect></g><path d="M145.15,435.81c-1.6,.79,0-150.34,0-150.34h83.55s-14.37,151.68-15.96,150.34c-1.6-1.34-67.58,0-67.58,0Z" style="fill: rgb(64, 123, 255); transform-origin: 186.569px 360.644px;" id="eloswynkx1ly" class="animable"></path><g id="el8o2ia07km1" class="animable" style="transform-origin: 100.595px 405.145px;"><polygon points="81.66 432.48 76.68 378.29 124.7 378.29 119.32 432.27 81.66 432.48" style="fill: rgb(38, 50, 56); transform-origin: 100.69px 405.385px;" id="elh0uieomgops" class="animable"></polygon><g id="elcj7k63qwgp5"><polygon points="81.66 432.48 76.68 378.29 124.7 378.29 119.32 432.27 81.66 432.48" style="fill: rgb(255, 255, 255); opacity: 0.3; transform-origin: 100.69px 405.385px;" class="animable"></polygon></g><rect x="74.75" y="377.81" width="51.69" height="3.41" style="fill: rgb(38, 50, 56); transform-origin: 100.595px 379.515px;" id="elcctpi9ktr1r" class="animable"></rect></g><rect x="74.75" y="431.96" width="149.11" height="7.7" style="fill: rgb(38, 50, 56); transform-origin: 149.305px 435.81px;" id="elxes5x2qibno" class="animable"></rect><rect x="129.64" y="291.04" width="9.6" height="140.93" style="fill: rgb(38, 50, 56); transform-origin: 134.44px 361.505px;" id="el6b0g5c3hcvg" class="animable"></rect><rect x="74.75" y="291.12" width="153.94" height="7.94" style="fill: rgb(38, 50, 56); transform-origin: 151.72px 295.09px;" id="elw97z0o4hz6k" class="animable"></rect><g id="elyk1zimxgqgh"><circle cx="95" cy="441.08" r="13.84" style="fill: rgb(38, 50, 56); transform-origin: 95px 441.08px; transform: rotate(-80.78deg);" class="animable"></circle></g><circle cx="95" cy="441.02" r="6.92" style="fill: rgb(64, 123, 255); transform-origin: 95px 441.02px;" id="eliw5gpqca0as" class="animable"></circle><g id="el4q42x9hmtk"><circle cx="199.28" cy="436.53" r="18.4" style="fill: rgb(38, 50, 56); transform-origin: 199.28px 436.53px; transform: rotate(-80.78deg);" class="animable"></circle></g><circle cx="199.28" cy="436.44" r="9.2" style="fill: rgb(64, 123, 255); transform-origin: 199.28px 436.44px;" id="el9rc54x9764" class="animable"></circle><g id="elr3y2wavja" class="animable" style="transform-origin: 96.2162px 265.865px;"><rect x="103.91" y="240.76" width="2.02" height="5.66" style="fill: rgb(38, 50, 56); transform-origin: 104.92px 243.59px;" id="elsrhwvfwvp6h" class="animable"></rect><g id="ela4jzxn43hgl" class="animable" style="transform-origin: 96.2162px 266.155px;"><path d="M107.21,270.91c-1.24-3.89-8.55-7.62-8.24-10.42,.31-2.8,.27-6.53,.27-6.53h-7.27c-.62,.62-6.84,12.91-4.51,27.37l1.99,9.64h14.64s4.35-16.17,3.11-20.06Z" style="fill: rgb(64, 123, 255); transform-origin: 97.1812px 272.465px;" id="el18dz6ydw3uk" class="animable"></path><rect x="91.06" y="250.04" width="8.64" height="3.59" style="fill: rgb(38, 50, 56); transform-origin: 95.38px 251.835px;" id="eldpmi66qxkeg" class="animable"></rect><path d="M85.01,248.27s.98-6.4,5.63-6.77c4.65-.36,13.27,0,13.27,0v4.34h-4.22v4.2h-8.28v-3.12s-2.07-1.45-6.4,1.34Z" style="fill: rgb(38, 50, 56); transform-origin: 94.46px 245.69px;" id="elkt70bc9olq" class="animable"></path><path d="M99.69,248.43s.66,3.61,6.04,4l.21-.9s-4.1-1.27-4.21-5.69h-2.04v2.59Z" style="fill: rgb(38, 50, 56); transform-origin: 102.815px 249.135px;" id="elw8rqckewdv" class="animable"></path></g></g><g id="elvn8hkl3g8p" class="animable" style="transform-origin: 186.18px 286.635px;"><rect x="141.17" y="281.78" width="90.02" height="9.71" style="fill: rgb(64, 123, 255); transform-origin: 186.18px 286.635px;" id="el1yc8fb5dj0m" class="animable"></rect><g id="el5zae8ycj24"><rect x="141.17" y="281.78" width="90.02" height="9.71" style="opacity: 0.3; transform-origin: 186.18px 286.635px;" class="animable"></rect></g></g><g id="eleqbw2757hmv"><polygon points="77.18 383.72 76.95 381.22 124.29 381.22 124.29 383.72 77.18 383.72" style="isolation: isolate; opacity: 0.2; transform-origin: 100.62px 382.47px;" class="animable"></polygon></g><g id="el5l1vk9z81o"><polygon points="131.57 260.09 123.72 260.09 119.88 284.7 131.57 284.7 131.57 260.09" style="fill: rgb(255, 255, 255); isolation: isolate; opacity: 0.7; transform-origin: 125.725px 272.395px;" class="animable"></polygon></g><g id="elr613q5bsiom"><g style="opacity: 0.5; transform-origin: 100.595px 379.515px;" class="animable"><rect x="74.75" y="377.81" width="51.69" height="3.41" style="fill: rgb(255, 255, 255); transform-origin: 100.595px 379.515px;" id="eleon81p6b64j" class="animable"></rect></g></g><path d="M117.53,405.06c-34.16,0-41-25.16-41.07-25.43l.97-.25c.07,.27,7.35,26.86,44.64,24.53l.06,1c-1.58,.1-3.12,.15-4.6,.15Z" style="fill: rgb(38, 50, 56); transform-origin: 99.295px 392.22px;" id="eledqqczlm5p" class="animable"></path></g></g><g id="freepik--Character_2--inject-2" class="animable animator-active" style="transform-origin: 583.905px 297.576px;"><g id="el4upgt5ctqrh" class="animable" style="transform-origin: 583.905px 297.576px;"><g id="elk6ca08lu2g" class="animable" style="transform-origin: 520.685px 242.109px;"><g id="eluhn0u2kxr8s" class="animable" style="transform-origin: 520.685px 242.109px;"><path d="M539.5,217.88l-4.19,17.12-35.18,20.85,2.56,6.84s39.94-10.47,42.6-14.1c2.66-3.63,9.89-27.61,9.89-27.61l-15.68-3.11Z" style="fill: rgb(233, 179, 118); transform-origin: 527.655px 240.28px;" id="elgwa4z9nm7n" class="animable"></path><g id="elgr9wzrl6qw8"><polygon points="538.47 222.08 537.81 224.77 550.1 228.07 551.93 231.31 552.65 229.06 551.53 223.52 538.47 222.08" style="opacity: 0.3; transform-origin: 545.23px 226.695px;" class="animable"></polygon></g><g id="eltq0p1shkt8" class="animable" style="transform-origin: 497.759px 256.864px;"><path d="M508.31,253.06s-1.79-2.89-4.53-3.5c-2.74-.61-4.77-1.83-6.84-2.15-2.07-.31-.23,1.83,.98,2.78,1.21,.94,2.57,2.03,1.71,2.82-.86,.79-10.64,3.05-11.7,4.28-1.06,1.23,.63,1.36,.63,1.36,0,0-2.36,.61-2.37,1.61,0,.26,.41,.87,1.53,.76,2.52-.25,7.78-1.04,7.78-1.04-.3,.04-6.72,1.48-7.66,1.82-1.22,.45-1.57,1.28-1.29,1.98,.4,.99,8.42-.52,8.81-.35,0,0-4.65,.72-5.12,2.02-.47,1.3,2.48,1.01,5.03,.26,2.34-.69,7.11-1.43,9.42-2.36,2.85-1.15,4.5-2.56,4.63-5.43,.12-2.88-1.01-4.87-1.01-4.87Z" style="fill: rgb(64, 123, 255); transform-origin: 497.759px 256.864px;" id="elfoj9k13nfdc" class="animable"></path><g id="elet0g33ru69"><path d="M488.86,258.64c-.06,0-.11-.04-.12-.1-.02-.07,.03-.13,.09-.15,1.9-.44,3.85-.8,5.78-1.07,.05-.01,.13,.04,.14,.11,0,.07-.04,.13-.11,.14-1.92,.26-3.86,.62-5.75,1.06,0,0-.02,0-.03,0Z" style="opacity: 0.3; transform-origin: 491.743px 257.979px;" class="animable"></path></g><g id="elxs7qroql1m9"><path d="M497.17,263.35s-.09-.02-.11-.07c-1.2-2.24-1.74-4.86-1.5-7.39,0-.07,.07-.13,.14-.11,.07,0,.12,.07,.11,.14-.23,2.48,.29,5.05,1.47,7.25,.03,.06,0,.14-.05,.17-.02,0-.04,.01-.06,.01Z" style="opacity: 0.3; transform-origin: 496.398px 259.563px;" class="animable"></path></g></g></g><polyline points="505.57 251.91 513.98 246.91 517.93 259.57 505.57 262.25 507.2 256.65 505.29 251.98" style="fill: rgb(64, 123, 255); transform-origin: 511.61px 254.58px;" id="elcb47of8yrx" class="animable"></polyline></g><g id="eldyp6rigss3" class="animable" style="transform-origin: 536.575px 437.61px;"><polygon points="554.83 423.92 547.05 445.57 539.78 443.3 542.05 420.51 554.83 423.92" style="fill: rgb(233, 179, 118); transform-origin: 547.305px 433.04px;" id="elw6y2tsu9za" class="animable"></polygon><g id="eleeevr7q5re8" class="animable" style="transform-origin: 533.943px 445.634px;"><path d="M548.2,451.96h0c-.17,1.59-.28,2.68-.28,2.68l-6.57,.02s-1.33-.7-2.11-.61c-.78,.1-3.48,.62-3.48,.62l-17.44,.04c.14-.73,.31-1.38,.5-1.96,.24-.7,.51-1.3,.82-1.81,1.08-1.77,2.55-2.4,4.15-2.5,2.44-.16,10.12-5.31,10.12-5.31,0,0,2.79-.98,2.93-3.95,.05-1.11,1.69-2.47,2.48-2.59,1.59-.23,2.48,.77,2.72,2.37l.27,1.85,3.68-.58s3.74-1.89,3.57-.06" style="fill: rgb(38, 50, 56); transform-origin: 533.943px 445.634px;" id="el6f2bw2e9khr" class="animable"></path><g id="elgv5l55cim3"><g style="opacity: 0.2; transform-origin: 533.26px 453.325px;" class="animable"><path d="M518.32,454.7l17.44-.04s2.7-.52,3.48-.62c.78-.1,2.11,.61,2.11,.61l6.57-.02s.12-1.09,.28-2.68l-29.38,.78c-.19,.58-.37,1.23-.5,1.96Z" style="fill: rgb(255, 255, 255); transform-origin: 533.26px 453.325px;" id="el7p3xqrwwxso" class="animable"></path></g></g><path d="M530.09,445.04c.08-.08,.21-.09,.3-.03,.43,.29,.8,.69,1.05,1.2,.13,.27-.26,.53-.39,.26-.22-.45-.54-.81-.92-1.06-.13-.08-.15-.26-.04-.37h0Z" style="fill: rgb(64, 123, 255); transform-origin: 530.742px 445.778px;" id="elfn11fjagkak" class="animable"></path><path d="M531.47,444.22c.08-.08,.21-.09,.3-.03,.43,.29,.8,.69,1.05,1.2,.13,.27-.26,.53-.39,.26-.22-.45-.54-.81-.92-1.06-.13-.08-.15-.26-.04-.37h0Z" style="fill: rgb(64, 123, 255); transform-origin: 532.122px 444.958px;" id="eldeanla01xjn" class="animable"></path><path d="M532.9,443.45c.08-.08,.21-.09,.3-.03,.43,.29,.8,.69,1.05,1.2,.13,.27-.26,.53-.39,.26-.22-.45-.54-.81-.92-1.06-.13-.08-.15-.26-.04-.37h0Z" style="fill: rgb(64, 123, 255); transform-origin: 533.552px 444.188px;" id="elr8ukq2kz8zi" class="animable"></path></g></g><g id="eli5pmrvi0kce" class="animable" style="transform-origin: 613.94px 438.705px;"><polygon points="605.02 421.52 608.45 444.96 616.1 445.27 618.36 422.62 605.02 421.52" style="fill: rgb(233, 179, 118); transform-origin: 611.69px 433.395px;" id="elxiujtkta0w" class="animable"></polygon><path d="M622.72,455.72l-17.11,.17s-.38-.72,.03-2.63c.06-.3,.14-.63,.25-.99,0-.02,0-.04,.02-.05,.15-.53,.33-1.18,.52-1.89,.76-2.87,1.64-6.62,1.64-6.62,0,0,2.79-6.12,6.13-4.63,2.94,1.31,2.28,5.13,2.28,5.13,0,0,.31,2.24,2.54,4.2,1.38,1.21,2.75,2.14,3.42,3.65,.13,.28,.22,.58,.3,.91,0,.04,.02,.08,.02,.12,.14,.73,.14,1.59-.04,2.63Z" style="fill: rgb(38, 50, 56); transform-origin: 614.155px 447.368px;" id="elysk2m8q9k19" class="animable"></path><g id="el722h0h07p12"><g style="opacity: 0.2; transform-origin: 614.149px 454.48px;" class="animable"><path d="M605.63,453.25c-.41,1.92-.03,2.63-.03,2.63l17.11-.17c.19-1.04,.19-1.9,.04-2.63l-17.13,.17Z" style="fill: rgb(255, 255, 255); transform-origin: 614.149px 454.48px;" id="el43qbb7u0sui" class="animable"></path></g></g><path d="M615.79,445.17c-.97-.74-2.23-.63-3.09,.22-.23,.23-.59-.12-.36-.35,1.07-1.06,2.61-1.14,3.8-.23,.26,.2-.1,.56-.35,.36h0Z" style="fill: rgb(64, 123, 255); transform-origin: 614.248px 444.823px;" id="eld9cm1mefdd" class="animable"></path><path d="M616.29,446.76c-.97-.74-2.23-.63-3.09,.22-.23,.23-.59-.12-.36-.35,1.07-1.06,2.61-1.14,3.8-.23,.26,.2-.1,.56-.35,.36h0Z" style="fill: rgb(64, 123, 255); transform-origin: 614.748px 446.413px;" id="el471f1w3nxrh" class="animable"></path><path d="M616.79,448.23c-.97-.74-2.23-.63-3.09,.22-.23,.23-.59-.12-.36-.35,1.07-1.06,2.61-1.14,3.8-.23,.26,.2-.1,.56-.35,.36h0Z" style="fill: rgb(64, 123, 255); transform-origin: 615.248px 447.883px;" id="elwhr2l6emoo8" class="animable"></path></g><g id="eliv8krc86zvn" class="animable" style="transform-origin: 580.391px 359.135px;"><path d="M622.82,276.42l-35.82,.66-22.49-.46s-15.12,68.22-16.34,81.05c-1.21,12.83-12.06,80.44-12.06,80.44l17.52,3.67s19.17-72.36,20.53-79.31c1.19-6.06,14.62-44.94,18.05-54.83,.37,2.01,.76,4.04,1.15,6.04,.98,9.08,4.13,38.01,5.48,48.78,0,0,3.31,61.54,6.63,79.39l16.45-.13c1.92-25.4,2.44-114.58,2.44-114.58h0c1.03-19.38-1.54-50.72-1.54-50.72Z" style="fill: rgb(38, 50, 56); transform-origin: 580.357px 359.135px;" id="elmvwegyb91z" class="animable"></path><g id="el0vh9n3qm6m"><g style="opacity: 0.5; transform-origin: 591.936px 295.127px;" class="animable"><path d="M573.83,286.7c-2.02,6.89-7.55,12.46-14.42,14.53-.37,.11-.21,.69,.17,.58,7.07-2.13,12.76-7.87,14.84-14.96,.11-.37-.47-.53-.58-.15h0Z" id="eln54c720fo0e" class="animable" style="transform-origin: 566.817px 294.153px;"></path><path d="M592.59,286.51c-.35,6.01-.69,12.03-1.03,18.04-.02,.39-.62,.39-.6,0,.18-3.08,.36-6.18,.53-9.27-1.47,1.16-3.22-.21-3.72-1.74-.82-2.47-.55-5.42,.05-7.91,.09-.38,.68-.22,.58,.15-.42,1.75-.59,3.53-.44,5.32,.07,.91,.16,1.96,.6,2.78,.48,.93,1.69,1.7,2.64,.85,.11-.09,.22-.1,.32-.05,.16-2.72,.31-5.46,.47-8.18,.02-.39,.62-.39,.6,0Z" id="el72aomj1jn0d" class="animable" style="transform-origin: 589.923px 295.127px;"></path><path d="M610.27,287.36c0,7.96,6.19,14.57,14.12,15.12,.38,.03,.37-.57,0-.59-7.61-.53-13.53-6.91-13.52-14.53,0-.38-.59-.38-.59,0h0Z" id="elegbo5rzs20i" class="animable" style="transform-origin: 617.471px 294.778px;"></path></g></g><g id="el8nbmjvfpz45"><g style="opacity: 0.3; transform-origin: 580.357px 359.135px;" class="animable"><path d="M622.82,276.42l-35.82,.66-22.49-.46s-15.12,68.22-16.34,81.05c-1.21,12.83-12.06,80.44-12.06,80.44l17.52,3.67s19.17-72.36,20.53-79.31c1.19-6.06,14.62-44.94,18.05-54.83,.37,2.01,.76,4.04,1.15,6.04,.98,9.08,4.13,38.01,5.48,48.78,0,0,3.31,61.54,6.63,79.39l16.45-.13c1.92-25.4,2.44-114.58,2.44-114.58h0c1.03-19.38-1.54-50.72-1.54-50.72Z" style="fill: rgb(255, 255, 255); transform-origin: 580.357px 359.135px;" id="elyqen393uaxq" class="animable"></path></g></g></g><path d="M550.96,193.46c-7.09,4.16-14.14,28.77-14.14,28.77l21.59,7.05,6.88-14.43-14.33-21.39Z" style="fill: rgb(64, 123, 255); transform-origin: 551.055px 211.37px;" id="eljk1xdvlnv8" class="animable"></path><g id="elkw1hnuqmy4"><path d="M555.67,214.08l-1.13,14.03-4.98-1.72c2.01-5.38,1.01-25.22,1.01-25.22,0,0,3.27,9.35,5.09,12.91Z" style="isolation: isolate; opacity: 0.2; transform-origin: 552.615px 214.64px;" class="animable"></path></g><g id="freepik--freepik--group--inject-124--inject-2" class="animable" style="transform-origin: 605.035px 200.876px;"><path d="M596.22,184.49c-4.05,3.02-8.6,9.92-4.98,17.44,2.57,5.34,10.08,15.73,10.08,15.73l18.83-10.6s-16.85-26.5-23.93-22.57Z" style="fill: rgb(64, 123, 255); transform-origin: 605.035px 200.876px;" id="el1620hqvng3z" class="animable"></path></g><path d="M554.88,191.66c5.06-1.46,20.41-7.12,42.3-7.57l11.59,21.25,10.88,52.94s2.14,6.06,3.93,17.64c-20.03,13.33-47.46,13.04-63.35,7.44-.62-6.83,.45-5.5-1.04-18.66-2.62-23.18-7.64-49.77-8.42-70.97-.01-.52,3.6-1.93,4.11-2.07Z" style="fill: rgb(64, 123, 255); transform-origin: 587.175px 235.545px;" id="el9zbk008e49c" class="animable"></path><g id="elrzil80uyov" class="animable" style="transform-origin: 586.266px 289.019px;"><path d="M556.96,215.84c-.43,1.93,2.78,42.67,2.78,42.67,0,0,.5,12.32,1.03,14.25,.53,1.93-14.54,113.68-4.31,118.94,10.23,5.26,55.09,2.22,55.09,2.22,0,0-.99-125.05,1.42-132.04,2.41-6.99,6.67-9.93,6.67-9.93l-2.94-14.91-7.14,.37s-9.37-31.21-13.49-29.64c-4.12,1.57-39.12,8.05-39.12,8.05Z" style="fill: rgb(38, 50, 56); transform-origin: 586.266px 301.253px;" id="eltcz1vdx6c7n" class="animable"></path><path d="M558.87,217.28l2.66,.34v-.03l-.02-.07s.03,.4,.02,.13c-.01-.24-.03-.48-.04-.72-.03-.75-.03-1.49-.02-2.24,0-2.27,.06-4.53,.12-6.8,.13-4.9,.31-9.81,.5-14.71,.04-1.1,.09-2.2,.13-3.3,.08-1.93-2.92-1.93-3,0-.37,8.74-.88,17.54-.75,26.29,.01,.68-.02,1.43,.14,2.1,.34,1.39,2.05,1.73,2.86,.52,1.07-1.61-1.53-3.12-2.59-1.51h0Z" style="fill: rgb(38, 50, 56); transform-origin: 560.335px 203.982px;" id="elqxr01j8i31j" class="animable"></path><path d="M596.89,213.33c-3-9.68-5.99-19.36-8.99-29.04-.57-1.84-3.47-1.05-2.89,.8,3,9.68,5.99,19.36,8.99,29.04,.57,1.84,3.47,1.05,2.89-.8h0Z" style="fill: rgb(38, 50, 56); transform-origin: 590.95px 199.21px;" id="elyunsaiy7a3" class="animable"></path><g id="eljzqltg6s45a" class="animable" style="transform-origin: 589.42px 224.195px;"><g id="el4nv98wcs642"><polyline points="582.96 223.82 593.34 220.12 595.88 227.22 585.5 230.93" style="fill: rgb(255, 255, 255); isolation: isolate; opacity: 0.6; transform-origin: 589.42px 225.525px;" class="animable"></polyline></g><path d="M585.49,219.02l1.91,3.26c.24,.43,.77,.6,1.22,.4h0c.4-.16,.64-.57,.6-1l-.42-4.22-3.32,1.55Z" style="fill: rgb(64, 123, 255); transform-origin: 587.352px 220.112px;" id="el47i573yqxc9" class="animable"></path><g id="eljfo9vk735"><path d="M585.49,219.02l1.91,3.26c.24,.43,.77,.6,1.22,.4h0c.4-.16,.64-.57,.6-1l-.42-4.22-3.32,1.55Z" style="isolation: isolate; opacity: 0.4; transform-origin: 587.352px 220.112px;" class="animable"></path></g></g></g><g id="elu087nhbgx2p"><g style="isolation: isolate; opacity: 0.2; transform-origin: 589.42px 262.943px;" class="animable"><path d="M593.84,273.03c4.56-1.03,8.33-5.85,10.29-10.09,2.03-4.37,4.29-11.77,4.29-11.77-2.68,3.46-5.36,6.92-8.04,10.38-1.65,2.13-3.32,4.28-5.46,5.92-2.97,2.27-6.63,3.39-10.26,4.29-4.68,1.15-9.44,1.99-14.24,2.5,0,0,10.89,1.61,23.41-1.22Z" id="elnackfn9q4bh" class="animable" style="transform-origin: 589.42px 262.943px;"></path></g></g><path d="M619.16,207.61s13.59,20.45,11.72,25.88c-1.87,5.43-34.51,32.73-34.51,32.73l-4.65-7.59,22.13-28.32-8.82-14.75,14.13-7.95Z" style="fill: rgb(233, 179, 118); transform-origin: 611.388px 236.915px;" id="elza1mrozette" class="animable"></path><g id="els3rjg0jks7" class="animable" style="transform-origin: 557.17px 166.474px;"><g id="elvfjbkqwdbpm" class="animable" style="transform-origin: 563.66px 168.117px;"><g id="elznc5vc26eei" class="animable" style="transform-origin: 571.5px 178.663px;"><path d="M578.93,185.29s-2.64-5.71-2.28-17.1c0-.01-.62-.12-.63-.13,.04-1.59,.14-3.08,.26-4.37,0-.04,0-.05,0-.05l-12.21,12.68c1.21,3.3,1.67,10.17,1.65,13.12,0,0-.55,5.48,6.17,3.99,4.91-1.09,7.02-8.14,7.02-8.14Z" style="fill: rgb(233, 179, 118); transform-origin: 571.5px 178.663px;" id="elaw1qjzl4ow7" class="animable"></path><g id="elnox1cpo7qc"><path d="M565.05,181.15l7.86-4.02c-.09,2.79-1.6,6.45-7.35,8.19,0,0-.16-3.05-.52-4.17Z" style="opacity: 0.2; transform-origin: 568.975px 181.225px;" class="animable"></path></g></g><g id="elpwc33ea9" class="animable" style="transform-origin: 563.66px 162.598px;"><path d="M547.64,153.83c-.85,3.79,.44,11.32,5.39,8.42,4.95-2.91-3.93-14.94-5.39-8.42Z" style="fill: rgb(38, 50, 56); transform-origin: 550.957px 157.41px;" id="el1t2j4y45yyb" class="animable"></path><path d="M574.59,156.57c1.38,9.44,2.34,14.74-1.38,20.47-5.61,8.62-17.74,6.81-21.92-2.06-3.76-7.98-5.38-22.09,3.01-27.62,8.26-5.45,18.92-.23,20.3,9.21Z" style="fill: rgb(233, 179, 118); transform-origin: 562.02px 163.899px;" id="elefcdaxjk6y" class="animable"></path><path d="M573.81,145.28c-2.35-4.87-15.63-2.4-18.67,.98-.46,.5,7.97,2.74,7.48,2.67l3.85,.49c.53-.24,1.75,.18,2.67,1.78,0,0,.69,10.16,5.61,13.45,3.66-2.72,4.42-4.6,4.75-8.19,.48-5.35-2.98-8.78-5.68-11.18Z" style="fill: rgb(38, 50, 56); transform-origin: 567.333px 153.599px;" id="eldd1glbmmi5i" class="animable"></path><path d="M579.9,163.57c-.24,2.56-1.65,4.75-3.31,6.06-2.49,1.96-4.99,.02-5.34-2.97-.32-2.69,.6-6.96,3.61-7.76,2.96-.78,5.32,1.74,5.04,4.67Z" style="fill: rgb(233, 179, 118); transform-origin: 575.556px 164.589px;" id="el45klnu98gu8" class="animable"></path><path d="M561.81,162.05c.2,.95-.15,1.83-.77,1.95-.63,.12-1.29-.55-1.49-1.5-.2-.95,.15-1.83,.77-1.95,.63-.12,1.29,.55,1.49,1.5Z" style="fill: rgb(38, 50, 56); transform-origin: 560.68px 162.275px;" id="elk1psigl6h2g" class="animable"></path><path d="M552.49,164.2c.2,.95-.15,1.83-.77,1.95-.63,.12-1.29-.55-1.49-1.5-.2-.95,.15-1.83,.77-1.95,.63-.12,1.3,.55,1.49,1.5Z" style="fill: rgb(38, 50, 56); transform-origin: 551.36px 164.425px;" id="elptc32c6yy0s" class="animable"></path><path d="M555.42,163.03s-2.03,5.37-2.59,7.51c1.58,.92,3.75-.11,3.75-.11l-1.16-7.4Z" style="fill: rgb(213, 135, 69); transform-origin: 554.705px 166.976px;" id="elb49xzjlpqfo" class="animable"></path><path d="M563.2,157.07c-.13,.09-.31,.11-.46,.03-1.83-.9-3.29-.07-3.31-.06-.22,.13-.5,.06-.63-.16-.13-.22-.06-.49,.16-.62,.08-.05,1.91-1.09,4.18,.03,.23,.11,.32,.38,.21,.61-.04,.07-.09,.13-.15,.17Z" style="fill: rgb(38, 50, 56); transform-origin: 561.066px 156.461px;" id="elqoe2a8j3wej" class="animable"></path></g><g id="elzxhg4t2k3kh"><path d="M573.56,165.37c-.13,0-.24-.1-.25-.23-.08-.87,.07-1.74,.43-2.54,.25-.54,.7-1.25,1.47-1.62,.76-.36,1.66-.25,2.2,.27,.1,.1,.1,.25,0,.35-.1,.1-.25,.1-.35,0-.38-.37-1.07-.45-1.64-.18-.63,.3-1.02,.92-1.23,1.38-.33,.71-.46,1.5-.39,2.28,.01,.14-.09,.26-.23,.27h-.02Z" style="opacity: 0.2; transform-origin: 575.387px 163.07px;" class="animable"></path></g></g><g id="eli09trtxnfs" class="animable" style="transform-origin: 562.352px 171.952px;"><path d="M565.63,168.24l-7.28,4.86c.71,.75,1.42,1.51,2.3,2.05,.88,.54,1.82,.61,2.83,.38,1.43-.34,2.55-1.51,2.8-2.96,.24-1.45-.13-2.94-.65-4.32Z" id="elbshvjj0t62" class="animable" style="transform-origin: 562.352px 171.947px;"></path><path d="M558.93,172.71s.81,.86,1.35,.87,5.82-3.88,5.82-3.88l-.48-1.46-6.69,4.47Z" style="fill: rgb(255, 255, 255); transform-origin: 562.515px 170.91px;" id="elih9xwzbrxsb" class="animable"></path><path d="M562.42,175.65s.02-1.52,1.5-2.62c1.47-1.1,2.42-.99,2.42-.99,0,0-.04,1.8-1.44,2.8-1.4,1-2.47,.81-2.47,.81Z" style="fill: rgb(222, 87, 83); transform-origin: 564.38px 173.851px;" id="el221eljq4srh" class="animable"></path></g><g id="elygmc57j19e" class="animable" style="transform-origin: 563.265px 148.25px;"><path d="M546.9,155.28s3.01-15.25,16.44-14.8c13.43,.45,16.08,7.7,16.29,15.55,0,0-13.12-2.84-18.74-3.35-5.61-.51-13.99,2.6-13.99,2.6Z" style="fill: rgb(64, 123, 255); transform-origin: 563.265px 148.25px;" id="elkxn3wn48n3j" class="animable"></path><g id="elku144taww0p"><path d="M546.9,155.28s3.01-15.25,16.44-14.8c13.43,.45,16.08,7.7,16.29,15.55,0,0-13.12-2.84-18.74-3.35-5.61-.51-13.99,2.6-13.99,2.6Z" style="isolation: isolate; opacity: 0.2; transform-origin: 563.265px 148.25px;" class="animable"></path></g></g><path d="M553.46,151.59c-7.13,1.31-9.75,1.63-15.85,4.73-.98,.5-1.97,1.06-2.61,1.95-.64,.89-.83,2.19-.17,3.06,.44,.58,1.12,1,1.84,1.08,2.52,.28,8.12-.14,11.56-.72l.07-3.45c.04-1.76,1.16-3.32,2.83-3.86,2.26-.74,5.21-1.45,7.8-1.41,6.06,.1,11.23,.81,17.21,2.33-5.14-2.47-8.46-3.48-14.36-4.01-1.6-.14-4.06-.5-8.33,.29Z" style="fill: rgb(64, 123, 255); transform-origin: 555.279px 156.792px;" id="el9usuofofdmq" class="animable"></path><path d="M567.37,139.57c-.53-.35-1.23-.39-1.82-.18-.59,.21-1.09,.67-1.41,1.21l3.98,.59c.1-.62-.23-1.28-.75-1.63Z" style="fill: rgb(64, 123, 255); transform-origin: 566.139px 140.226px;" id="ela3ib9njkbcs" class="animable"></path><path d="M547.52,161.03c-.09,0-.17-.03-.25-.08-.21-.14-.27-.43-.13-.63,1.39-2.1,3.49-2.07,3.58-2.08,.25,0,.45,.21,.45,.46,0,.25-.21,.45-.46,.45-.09,0-1.7,0-2.82,1.68-.09,.13-.23,.2-.38,.2Z" style="fill: rgb(38, 50, 56); transform-origin: 549.117px 159.635px;" id="elg5l80knczne" class="animable"></path></g><path d="M490.86,441.11c10.19-23.81,21.21-47.27,32.79-70.44,11.94-23.89,24.47-47.52,38.12-70.48,3.08-5.18,6.21-10.32,9.45-15.4,.92-1.44,1.86-2.88,2.84-4.27,.25-.35,.5-.7,.75-1.04,.03-.04,.88-1.16,.33-.45,.52-.67,1.07-1.32,1.63-1.96,1.13-1.28,2.36-2.43,3.63-3.56,1.01-.91-.69,.45,.39-.31,.34-.24,.67-.47,1.01-.7,.69-.45,1.4-.87,2.13-1.24,.37-.19,.74-.37,1.11-.53-.88,.4,.35-.12,.44-.16,.77-.27,1.55-.5,2.34-.68,.39-.09,.79-.16,1.19-.23-1.05,.16,.26,0,.4-.01,.4-.02,.8-.03,1.2-.03,.14,0,1.54,.09,1,.04-.68-.06,.6,.11,.59,.11,.37,.08,.73,.17,1.1,.28,.3,.09,.6,.2,.9,.3,1.02,.31-.87-.45,.07,.02,.54,.27,1.08,.54,1.6,.86,.25,.16,.5,.33,.75,.5,.39,.29,.32,.23-.2-.16,.16,.12,.31,.25,.46,.38,.38,.33,.74,.67,1.08,1.03,.21,.22,.41,.44,.61,.67s.91,.81,.06,.03c.91,.84,1.57,2.34,2.12,3.43,.14,.28,.28,.57,.42,.86,.03,.06,.45,1.03,.16,.35s.12,.3,.14,.36c.12,.31,.23,.61,.34,.92,.48,1.36,.87,2.75,1.19,4.15,.28,1.21,.48,2.42,.68,3.64,.19,1.15-.11-1.01,.02,.14,.04,.33,.08,.67,.11,1,.08,.77,.14,1.55,.19,2.32,.22,3.47,.18,6.97,.11,10.45-.16,7.86-.73,15.69-1.29,23.53-1.09,15.34-2.08,30.79,.17,46.08,1.72,11.68,5.52,23.33,11.81,33.37,3.11,4.97,6.87,9.64,11.28,13.52,2.3,2.02,4.76,3.89,7.36,5.5,1.97,1.22,4.28,2.74,6.57,3.25,2.85,.63,5.79,.94,8.7,1.1,2.35,.13,4.6-2.16,4.5-4.5-.11-2.55-1.98-4.36-4.5-4.5-.9-.05-1.8-.11-2.7-.2-.39-.04-.78-.09-1.17-.13,1.15,.13,.05,0-.16-.03-.84-.13-1.75-.45-2.6-.49-.02,0-.13-.05-.15-.04l.74,.3c-.22-.1-.43-.2-.64-.31-.53-.26-1.06-.53-1.58-.81-1.35-.72-2.65-1.51-3.92-2.36-.58-.39-1.15-.79-1.72-1.21-.15-.11-1.08-.84-.2-.14-.27-.22-.55-.43-.82-.65-1.08-.88-2.12-1.81-3.13-2.79s-1.97-1.99-2.9-3.03c-.46-.53-.92-1.06-1.36-1.6-.22-.27-.44-.55-.66-.82-.31-.39-.29-.37,.06,.08-.14-.19-.28-.38-.42-.56-1.69-2.28-3.23-4.69-4.61-7.17-.7-1.26-1.36-2.54-1.98-3.83-.26-.54-.51-1.09-.76-1.64-.15-.33-.29-.66-.44-.99-.2-.47-.19-.44,.03,.07-.09-.22-.19-.45-.28-.67-2.25-5.52-3.89-11.28-5-17.14-.25-1.31-.47-2.63-.66-3.94-.03-.19-.19-1.41-.04-.24-.05-.36-.09-.72-.14-1.08-.1-.83-.19-1.67-.27-2.51-.36-3.81-.54-7.64-.59-11.47-.11-8,.34-16,.88-23.99s1.19-16,1.48-24.02c.25-6.87,.36-13.75-.7-20.56-.84-5.44-2.58-11.08-5.91-15.54-3.87-5.18-9.59-8.57-16.19-8.51-15.47,.13-23.93,14.93-31.04,26.49-13.86,22.55-26.46,45.89-38.47,69.47-12.04,23.65-23.48,47.62-34.12,71.93-1.17,2.68-2.34,5.37-3.49,8.07-.92,2.16-.72,4.93,1.61,6.16,1.93,1.02,5.17,.7,6.16-1.61h0Z" style="fill: rgb(224, 224, 224); transform-origin: 567.891px 351.965px;" id="el4tw705wh3eo" class="animable"></path><g id="elhsitwnc0qz7" class="animable" style="transform-origin: 682.555px 403.625px;"><rect x="653.01" y="364.8" width="65.36" height="78.12" rx="4.06" ry="4.06" style="fill: rgb(64, 123, 255); transform-origin: 685.69px 403.86px;" id="eldpydvjihljl" class="animable"></rect><rect x="651.22" y="376.13" width="69.06" height="9.75" style="fill: rgb(38, 50, 56); transform-origin: 685.75px 381.005px;" id="elbwah3qxa5cr" class="animable"></rect><path d="M651.48,368.02h68.8l-1.04-6.21h-11.4l-8.28-8.28h-31.28l-7.28,8.28-9.52,.36v5.84Z" style="fill: rgb(38, 50, 56); transform-origin: 685.88px 360.775px;" id="eldu0emilo86u" class="animable"></path><circle cx="708.95" cy="441.01" r="12.48" style="fill: rgb(38, 50, 56); transform-origin: 708.95px 441.01px;" id="el1h318pyzaati" class="animable"></circle><circle cx="666.78" cy="446.18" r="7.54" style="fill: rgb(38, 50, 56); transform-origin: 666.78px 446.18px;" id="elmphkwill4ff" class="animable"></circle><rect x="643.68" y="418.09" width="9.34" height="9.34" style="fill: rgb(64, 123, 255); transform-origin: 648.35px 422.76px;" id="el471pbzjva3d" class="animable"></rect><g id="el95c3zy3zobw"><rect x="653.01" y="385.88" width="65.36" height="3.53" style="opacity: 0.3; transform-origin: 685.69px 387.645px;" class="animable"></rect></g></g><g id="elw24zl40ys08" class="animable" style="transform-origin: 478.435px 440.15px;"><rect x="446.18" y="444.49" width="64.51" height="8.13" style="fill: rgb(38, 50, 56); transform-origin: 478.435px 448.555px;" id="el7e7jn64tayl" class="animable"></rect><rect x="454.56" y="441.38" width="46.45" height="4.74" style="fill: rgb(38, 50, 56); transform-origin: 477.785px 443.75px;" id="el0jg9lkys2abj" class="animable"></rect><path d="M478.71,441.84c.24,0,6.87-14.16,6.87-14.16l11.19,2.26-5.44,11.44-12.62,.47Z" style="fill: rgb(38, 50, 56); transform-origin: 487.74px 434.765px;" id="el9fzvvgn411o" class="animable"></path></g><path d="M591.37,255.8c-.59,.05-9.42,3.34-12.65,7.67l4.06-.89-4.4,10.96s-.89,4.66,5.08,1.92c5.97-2.75,7.86,2.39,11.57-3.08,3.71-5.47,7.74-10.87,7.74-10.87l6.51-4.65-11.18-11.74-6.73,10.68Z" style="fill: rgb(64, 123, 255); transform-origin: 593.806px 260.722px;" id="el0ol8spbh161j" class="animable"></path><g id="el7x42uvw869"><rect x="651.22" y="418.09" width="1.79" height="9.34" style="opacity: 0.3; transform-origin: 652.115px 422.76px;" class="animable"></rect></g><path d="M720.88,393.93v25.33c0,.48,.75,.48,.75,0v-25.33c0-.48-.75-.48-.75,0h0Z" style="fill: rgb(64, 123, 255); transform-origin: 721.255px 406.595px;" id="eli8tog2y7frs" class="animable"></path><path d="M720.88,423.43v3.09c0,.48,.75,.48,.75,0v-3.09c0-.48-.75-.48-.75,0h0Z" style="fill: rgb(64, 123, 255); transform-origin: 721.255px 424.975px;" id="elvmu9qubyo4o" class="animable"></path></g></g><g id="freepik--Desk--inject-2" class="animable" style="transform-origin: 499.085px 348.665px;"><g id="elkspy7s3aae" class="animable" style="transform-origin: 499.085px 348.665px;"><g id="el35afh7k1lng" class="animable" style="transform-origin: 489.853px 281.265px;"><g id="el0jf83gdf0p3c" class="animable" style="transform-origin: 489.853px 281.265px;"><path d="M531.08,298.74c.2,2.56-1.42,4.64-3.64,4.64h-70.24c-2.23,0-4.2-2.08-4.4-4.64l-4.17-51.69c-.05-.53-.01-1.04,.09-1.51,.4-1.82,1.79-3.13,3.55-3.13h70.24c2.23,0,4.19,2.08,4.4,4.64l4.17,51.69Z" style="fill: rgb(38, 50, 56); isolation: isolate; transform-origin: 489.853px 272.895px;" id="elleqsj1zb0vo" class="animable"></path><g id="el0vw4c9v9c8sk"><path d="M531.08,298.74c.2,2.56-1.42,4.64-3.64,4.64h-70.24c-2.23,0-4.2-2.08-4.4-4.64l-4.17-51.69c-.05-.53-.01-1.04,.09-1.51,.4-1.82,1.79-3.13,3.55-3.13h70.24c2.23,0,4.19,2.08,4.4,4.64l4.17,51.69Z" style="fill: rgb(255, 255, 255); opacity: 0.7; transform-origin: 489.853px 272.895px;" class="animable"></path></g><path d="M527.19,303.38h-69.99c-2.23,0-4.2-2.08-4.4-4.64l-4.17-51.69c-.05-.53-.01-1.04,.09-1.51h69.99c2.22,0,4.18,2.08,4.4,4.64l4.17,51.69c.05,.53,.01,1.04-.09,1.51Z" style="fill: rgb(38, 50, 56); isolation: isolate; transform-origin: 487.955px 274.46px;" id="elw870sb7tn8" class="animable"></path><g id="eluajubw1qwxg"><path d="M527.19,303.38h-69.99c-2.23,0-4.2-2.08-4.4-4.64l-4.17-51.69c-.05-.53-.01-1.04,.09-1.51h69.99c2.22,0,4.18,2.08,4.4,4.64l4.17,51.69c.05,.53,.01,1.04-.09,1.51Z" style="fill: rgb(255, 255, 255); isolation: isolate; opacity: 0.5; transform-origin: 487.955px 274.46px;" class="animable"></path></g><polygon points="480.09 291.32 494.21 291.39 491.48 316.82 505.35 317.04 505.35 320.03 467.99 320.12 467.99 317.17 476.99 316.99 480.09 291.32" style="fill: rgb(38, 50, 56); isolation: isolate; transform-origin: 486.67px 305.72px;" id="el880owmctsd" class="animable"></polygon></g><g id="elk43c3q2b618"><path d="M494.21,291.39c-.04,.38,3.13,11.99,3.13,11.99h-4.42l1.29-11.99Z" style="opacity: 0.3; transform-origin: 495.13px 297.385px;" class="animable"></path></g><g id="elu9gjkjoyd8h"><polygon points="478.64 303.38 480.09 291.32 476.44 303.38 478.64 303.38" style="opacity: 0.3; transform-origin: 478.265px 297.35px;" class="animable"></polygon></g></g><g id="el2jpvbq1cvth" class="animable" style="transform-origin: 499.085px 387.45px;"><g id="elmyctl62xosj" class="animable" style="transform-origin: 442.655px 388.165px;"><rect x="440.23" y="321.41" width="4.85" height="133.51" style="fill: rgb(38, 50, 56); isolation: isolate; transform-origin: 442.655px 388.165px;" id="elbwbr2r1fxp" class="animable"></rect><g id="elcdx9ygzs9zu"><rect x="440.23" y="321.41" width="4.85" height="133.51" style="fill: rgb(255, 255, 255); isolation: isolate; opacity: 0.3; transform-origin: 442.655px 388.165px;" class="animable"></rect></g></g><g id="elswwfv5seq39" class="animable" style="transform-origin: 425.21px 388.165px;"><rect x="405.34" y="321.41" width="4.85" height="133.51" style="fill: rgb(38, 50, 56); isolation: isolate; transform-origin: 407.765px 388.165px;" id="el99e7wctxhor" class="animable"></rect><g id="elkikflwh1lwp"><rect x="405.34" y="321.41" width="4.85" height="133.51" style="fill: rgb(255, 255, 255); isolation: isolate; opacity: 0.3; transform-origin: 407.765px 388.165px;" class="animable"></rect></g><g id="elogw9q9xq6ko"><polygon points="405.34 329.86 405.34 338.47 410.19 336.31 410.19 329.12 405.34 329.86" style="opacity: 0.2; transform-origin: 407.765px 333.795px;" class="animable"></polygon></g><g id="elzui7ipn13ns"><polygon points="440.23 329.86 440.23 338.47 445.08 336.31 445.08 329.12 440.23 329.86" style="opacity: 0.2; transform-origin: 442.655px 333.795px;" class="animable"></polygon></g></g><g id="el4130qdr6b1y" class="animable" style="transform-origin: 546.085px 388.165px;"><rect x="543.66" y="321.41" width="4.85" height="133.51" style="fill: rgb(38, 50, 56); isolation: isolate; transform-origin: 546.085px 388.165px;" id="ellarhowjisq" class="animable"></rect><g id="eltyyeewsytws"><rect x="543.66" y="321.41" width="4.85" height="133.51" style="fill: rgb(255, 255, 255); isolation: isolate; opacity: 0.3; transform-origin: 546.085px 388.165px;" class="animable"></rect></g><g id="elb4xlnzdhk9n"><polygon points="543.66 329.86 543.66 338.47 548.51 336.31 548.51 329.12 543.66 329.86" style="opacity: 0.2; transform-origin: 546.085px 333.795px;" class="animable"></polygon></g></g><g id="el3fug4pgs3tn" class="animable" style="transform-origin: 590.645px 388.165px;"><rect x="588.22" y="321.41" width="4.85" height="133.51" style="fill: rgb(38, 50, 56); isolation: isolate; transform-origin: 590.645px 388.165px;" id="el9as6s0ztvjh" class="animable"></rect><g id="elj7b9h5drz8j"><rect x="588.22" y="321.41" width="4.85" height="133.51" style="fill: rgb(255, 255, 255); isolation: isolate; opacity: 0.3; transform-origin: 590.645px 388.165px;" class="animable"></rect></g><g id="elnia6pyxt04d"><polygon points="588.22 329.77 588.22 338.38 593.07 336.22 593.07 329.03 588.22 329.77" style="opacity: 0.2; transform-origin: 590.645px 333.705px;" class="animable"></polygon></g></g><g id="el18z9dmgaj4j" class="animable" style="transform-origin: 499.085px 324.92px;"><rect x="399.05" y="319.98" width="200.07" height="9.88" style="fill: rgb(38, 50, 56); isolation: isolate; transform-origin: 499.085px 324.92px;" id="elbeo3hi1x9bo" class="animable"></rect><g id="el0ouel718i53k"><rect x="552.18" y="319.98" width="46.93" height="9.88" style="isolation: isolate; opacity: 0.3; transform-origin: 575.645px 324.92px;" class="animable"></rect></g></g></g><g id="elxazlqo74wv"><polygon points="480.09 291.32 494.21 291.39 491.48 316.82 505.35 317.04 505.35 320.03 467.99 320.12 467.99 317.17 476.99 316.99 480.09 291.32" style="fill: rgb(255, 255, 255); isolation: isolate; opacity: 0.6; transform-origin: 486.67px 305.72px;" class="animable"></polygon></g></g><g id="elp816kh5j75k" class="animable" style="transform-origin: 417.064px 294.386px;"><g id="el6vei4f4l2o" class="animable" style="transform-origin: 417.064px 294.386px;"><path d="M428.7,298.84c-1.32-4.11-9.05-8.06-8.72-11.02,.33-2.96,.28-6.91,.28-6.91h-7.69c-.66,.66-7.24,13.65-4.77,28.95l2.11,10.2h15.49s4.61-17.11,3.29-21.22Z" style="fill: rgb(64, 123, 255); transform-origin: 418.088px 300.485px;" id="elgx00sg31z7q" class="animable"></path><rect x="411.6" y="277.91" width="9.14" height="3.8" style="fill: rgb(38, 50, 56); transform-origin: 416.17px 279.81px;" id="el1htjbm4fvzd" class="animable"></rect><path d="M405.21,276.04s1.04-6.78,5.96-7.16,14.04,0,14.04,0v4.59h-4.47v4.44h-8.76v-3.3s-2.19-1.53-6.78,1.42Z" style="fill: rgb(38, 50, 56); transform-origin: 415.205px 273.311px;" id="el9if8d92iath" class="animable"></path><path d="M420.74,276.21s.7,3.82,6.39,4.23l.22-.95s-4.33-1.34-4.45-6.01h-2.16v2.74Z" style="fill: rgb(38, 50, 56); transform-origin: 424.045px 276.96px;" id="elqe7eby8og2" class="animable"></path></g><g id="elh9rh646abw"><path d="M422.83,292.08l-15.58,7.82s-.08,5.86,0,5.78c.08-.08,18.67-10.73,18.6-10.79-.06-.06-3.03-2.81-3.03-2.81Z" style="fill: rgb(255, 255, 255); opacity: 0.3; transform-origin: 416.532px 298.88px;" class="animable"></path></g><g id="els9v1d3bp26"><path d="M407.69,309.07l19.65-12.56s.79,1.12,.76,1.07c-.03-.05-19.88,13.88-19.88,13.88l-.53-2.39Z" style="fill: rgb(255, 255, 255); opacity: 0.3; transform-origin: 417.895px 303.985px;" class="animable"></path></g></g></g><g id="freepik--Plant--inject-2" class="animable" style="transform-origin: 385.265px 401.185px;"><g id="el80fpq312nef" class="animable" style="transform-origin: 385.265px 401.185px;"><g id="el9osp6rz84wc" class="animable" style="transform-origin: 385.265px 401.185px;"><path d="M394.26,396.04c2.63-3.24,7.72-5.41,13.3-6.45-.44,1.6-.11,3.07,.83,3.43,1.05,.4,2.47-.73,3.16-2.53,.19-.51,.3-1.01,.35-1.49,5.63-.46,11.26,.19,15.02,1.99,0,0-3.68,3.32-7.85,12.04-.13,0-.26,0-.39,0-2.7,.03-4.87,1.33-4.85,2.91,.01,1.15,1.19,2.13,2.88,2.57-.22,.56-.44,1.13-.66,1.72-3.97,10.74-14.56,2.98-14.47-4.38,0,0-13.22-2.54-7.33-9.81Z" style="fill: rgb(64, 123, 255); transform-origin: 409.829px 402.188px;" id="eljq3b5djj38i" class="animable"></path><g id="elhddph5y7te8" class="animable" style="transform-origin: 380.36px 401.185px;"><path d="M381.21,382.17c-3.24-3.5-9.21-5.59-15.65-6.36,.62,1.79,.35,3.49-.69,3.98-1.17,.54-2.87-.64-3.79-2.64-.26-.56-.42-1.13-.5-1.67-6.45-.1-12.82,1.06-16.97,3.4,0,0,4.44,3.51,9.85,13.13,.15-.01,.29-.03,.44-.04,3.08-.17,5.65,1.15,5.75,2.95,.07,1.32-1.2,2.52-3.09,3.14,.29,.62,.58,1.25,.88,1.91,5.33,11.95,16.82,2.31,16.16-6.07,0,0,14.89-3.88,7.62-11.73Z" style="fill: rgb(64, 123, 255); transform-origin: 363.415px 390.522px;" id="elwwiy2us583i" class="animable"></path><g id="elspf493unufg" class="animable" style="transform-origin: 395.071px 372.246px;"><path d="M373.33,379.54c1.38-6.72,7.15-13.73,14.5-19.48,.57,2.66,2.17,4.56,3.82,4.37,1.84-.21,3.04-2.93,2.68-6.07-.1-.89-.32-1.7-.62-2.43,7.86-4.93,16.56-8.26,23.4-8.48,0,0-2.85,7.62-2.31,23.49-.19,.09-.38,.18-.57,.28-3.91,2.08-6.09,5.63-4.87,7.92,.89,1.67,3.35,2.21,6.14,1.56,.1,.98,.22,1.97,.35,3,2.36,18.67-18.96,15.37-24.4,4.58,0,0-21.2,6.32-18.11-8.74Z" style="fill: rgb(64, 123, 255); transform-origin: 395.071px 372.246px;" id="el0t0s8wh3m1j" class="animable"></path><g id="elj5rsb6ghpxg"><path d="M373.33,379.54c1.38-6.72,7.15-13.73,14.5-19.48,.57,2.66,2.17,4.56,3.82,4.37,1.84-.21,3.04-2.93,2.68-6.07-.1-.89-.32-1.7-.62-2.43,7.86-4.93,16.56-8.26,23.4-8.48,0,0-2.85,7.62-2.31,23.49-.19,.09-.38,.18-.57,.28-3.91,2.08-6.09,5.63-4.87,7.92,.89,1.67,3.35,2.21,6.14,1.56,.1,.98,.22,1.97,.35,3,2.36,18.67-18.96,15.37-24.4,4.58,0,0-21.2,6.32-18.11-8.74Z" style="fill: rgb(255, 255, 255); opacity: 0.2; transform-origin: 395.071px 372.246px;" class="animable"></path></g><path d="M406.19,360.11c.19-.22,.3-.33,.3-.33-.1,.11-.2,.22-.3,.33Z" style="fill: rgb(38, 50, 56); transform-origin: 406.34px 359.945px;" id="elaehacak1i9e" class="animable"></path></g><path d="M388.33,422.2c-3.57-19.84,1.76-41.12,14.27-56.93l.59,.46c-12.37,15.64-17.65,36.7-14.12,56.33l-.74,.13Z" style="fill: rgb(38, 50, 56); transform-origin: 395.216px 393.735px;" id="elueh4g24tzo" class="animable"></path><path d="M387.73,415.43s-.08,0-.11-.02c-.11-.04-.2-.12-.24-.24-2.52-7.38-11.03-23.29-25.19-30.64-.18-.1-.26-.32-.16-.51,.1-.18,.32-.25,.51-.16,14.08,7.31,22.64,22.92,25.39,30.59,2.75-1.99,18.7-13.5,26.69-18.62,.17-.11,.41-.06,.52,.11,.11,.17,.06,.41-.11,.52-8.7,5.57-26.88,18.76-27.06,18.89-.07,.05-.14,.07-.22,.07Z" style="fill: rgb(38, 50, 56); transform-origin: 388.592px 399.625px;" id="elb41xqsbvpf" class="animable"></path><g id="elyyk8ka1d527" class="animable" style="transform-origin: 388.165px 437.57px;"><polygon points="410.6 428.44 365.73 428.44 365.75 420.22 410.55 420.22 410.6 428.44" style="fill: rgb(38, 50, 56); transform-origin: 388.165px 424.33px;" id="el4glkomconuy" class="animable"></polygon><polygon points="368.98 425.76 375.99 454.92 401.81 454.92 408.06 425.76 368.98 425.76" style="fill: rgb(38, 50, 56); transform-origin: 388.52px 440.34px;" id="elyfdamxfsv0h" class="animable"></polygon><g id="elaf0ni11tir"><polygon points="369.62 428.44 407.48 428.44 406.79 431.67 370.3 431.67 369.62 428.44" style="opacity: 0.3; transform-origin: 388.55px 430.055px;" class="animable"></polygon></g></g></g></g><path d="M372.22,418.79h-3.99c-.14,0-.25-.11-.25-.25s.11-.25,.25-.25h3.99c.14,0,.25,.11,.25,.25s-.11,.25-.25,.25Z" style="fill: rgb(64, 123, 255); transform-origin: 370.225px 418.54px;" id="eloca4p8dcgn9" class="animable"></path><path d="M384.98,418.79h-10.92c-.14,0-.25-.11-.25-.25s.11-.25,.25-.25h10.92c.14,0,.25,.11,.25,.25s-.11,.25-.25,.25Z" style="fill: rgb(64, 123, 255); transform-origin: 379.52px 418.54px;" id="eln5tx35cijxa" class="animable"></path></g></g><g id="freepik--Character_1--inject-2" class="animable" style="transform-origin: 298.24px 298.656px;"><g id="eleegcq5r1398" class="animable" style="transform-origin: 298.24px 298.656px;"><g id="ell5o4f5iesjl" class="animable" style="transform-origin: 277.984px 439.045px;"><path d="M268.09,424.17l-.02,19.6,9.86,.71,3.46-18.42c-4.51-3.01-8.95-3.72-13.3-1.89Z" style="fill: rgb(185, 121, 100); transform-origin: 274.73px 433.825px;" id="el1hnhtkeqe86" class="animable"></path><path d="M268.42,441.73c-.97,2.59-1.03,13.17-1.03,13.17l20.9,.02c1.24-3.83-.68-6.44-3.12-6.79-1.05-.15-2.28-1.22-3.18-2.16,0-.12-1.28-6-2.07-6.28,0,0-.54-.61-1.01,0-.46,.61-.87,2.6-.87,2.6-3.26-4.05-6.46-3.51-9.62-.56Z" style="fill: rgb(38, 50, 56); transform-origin: 278.034px 447.153px;" id="eljidown38qz" class="animable"></path><path d="M268.16,444.8c2.36-.87,4.89-.54,6.95,.91,.36,.25,.7-.34,.34-.59-2.19-1.54-4.96-1.9-7.48-.98-.41,.15-.23,.81,.18,.66h0Z" style="fill: rgb(255, 255, 255); transform-origin: 271.671px 444.705px;" id="elf3ss9re7jhw" class="animable"></path><path d="M288.22,453.38h0l-20.59-.02c-.19,0-.34-.15-.34-.34,0-.19,.15-.34,.34-.34h0l20.59,.02c.19,0,.34,.15,.34,.34,0,.19-.15,.34-.34,.34Z" style="fill: rgb(255, 255, 255); transform-origin: 277.925px 453.03px;" id="elay13p7e096" class="animable"></path></g><g id="eldmkkxr2prog" class="animable" style="transform-origin: 304.724px 439.045px;"><path d="M294.84,424.17l-.02,19.6,9.86,.71,3.46-18.42c-4.51-3.01-8.95-3.72-13.3-1.89Z" style="fill: rgb(185, 121, 100); transform-origin: 301.48px 433.825px;" id="elc8mgrnk3er8" class="animable"></path><path d="M295.16,441.73c-.97,2.59-1.03,13.17-1.03,13.17l20.9,.02c1.24-3.83-.68-6.44-3.12-6.79-1.05-.15-2.28-1.22-3.18-2.16,0-.12-1.28-6-2.07-6.28,0,0-.54-.61-1.01,0-.46,.61-.87,2.6-.87,2.6-3.26-4.05-6.46-3.51-9.62-.56Z" style="fill: rgb(38, 50, 56); transform-origin: 304.774px 447.153px;" id="el5hoss3p7m85" class="animable"></path><path d="M294.91,444.8c2.36-.87,4.89-.54,6.95,.91,.36,.25,.7-.34,.34-.59-2.19-1.54-4.97-1.9-7.48-.98-.41,.15-.23,.81,.18,.66h0Z" style="fill: rgb(255, 255, 255); transform-origin: 298.421px 444.705px;" id="elmjskzgo991a" class="animable"></path><path d="M314.96,453.38h0l-20.59-.02c-.19,0-.34-.15-.34-.34,0-.19,.15-.34,.34-.34h0l20.59,.02c.19,0,.34,.15,.34,.34,0,.19-.15,.34-.34,.34Z" style="fill: rgb(255, 255, 255); transform-origin: 304.665px 453.03px;" id="elu8mgqh4luum" class="animable"></path></g><path d="M306.33,244.32s13.39,21.34,18.44,53.96c5.44,35.1,0,86.21,0,86.21h-49.8v-66.48l-5.04-65.42,36.4-8.27Z" style="fill: rgb(38, 50, 56); transform-origin: 298.559px 314.405px;" id="elqci4ew8fez" class="animable"></path><path d="M264.91,214.57c-.49-.01-3.89,21.61-3.66,22.24,.84,2.34,25.8-2.88,25.8-2.88l1.57,6.67s-10.9,5.29-22.63,7.21c-12.1,1.97-16.62-3.38-16.68-11.59-.05-7.52,3.06-25.8,3.06-25.8l12.53,4.15Z" style="fill: rgb(185, 121, 100); transform-origin: 268.965px 229.32px;" id="elzspr9lpmjc" class="animable"></path><g id="els8m6iyt56d" class="animable" style="transform-origin: 291.903px 343.51px;"><g id="el1mdsdzefwrv" class="animable" style="transform-origin: 291.903px 343.51px;"><path d="M306.75,252.51l-38.67-2.24c-5.66,7.42-7.89,21.75-7.49,34.03,.43,7.86,1.76,18.08,3.21,27.86,2.1,14.13,4.46,27.33,4.72,31.16,.02,0,.42,0,.45,0-.03,4.96-3.12,21.67-3.13,29.11-.01,25.36-.34,64.23-.34,64.23h18.79s8.01-87.16,8.18-92.44c.02-.59,.04-1.18,.07-1.79l.53-9.22c.57-8.43,1.32-17.82,1.56-27.31l.88-15.38c11.16-4.02,16.31-17.64,18.19-20.52-3.25-10.75-4.12-12.86-6.94-17.51Z" style="fill: rgb(38, 50, 56); transform-origin: 287.122px 343.465px;" id="elqt38sqa3um" class="animable"></path><path d="M312.54,265.42s5.71,19.67,10.55,66.71c.92,8.98-2.09,22.54-3.58,30.93l-10.25,73.69-18.12-.09c1.57-33.9,4.32-72.97,7.67-87.49l-21.62-73.61,35.35-10.14Z" style="fill: rgb(38, 50, 56); transform-origin: 300.226px 351.085px;" id="el103tpsrv877" class="animable"></path></g><g id="el99ucdqpvjg7"><g style="opacity: 0.4; transform-origin: 291.903px 343.51px;" class="animable"><path d="M306.75,252.51l-38.67-2.24c-5.66,7.42-7.89,21.75-7.49,34.03,.43,7.86,1.76,18.08,3.21,27.86,2.1,14.13,4.46,27.33,4.72,31.16,.02,0,.42,0,.45,0-.03,4.96-3.12,21.67-3.13,29.11-.01,25.36-.34,64.23-.34,64.23h18.79s8.01-87.16,8.18-92.44c.02-.59,.04-1.18,.07-1.79l.53-9.22c.57-8.43,1.32-17.82,1.56-27.31l.88-15.38c11.16-4.02,16.31-17.64,18.19-20.52-3.25-10.75-4.12-12.86-6.94-17.51Z" style="fill: rgb(255, 255, 255); transform-origin: 287.122px 343.465px;" id="eldsl0we0qzp4" class="animable"></path><path d="M312.54,265.42s5.71,19.67,10.55,66.71c.92,8.98-2.09,22.54-3.58,30.93l-10.25,73.69-18.12-.09c1.57-33.9,4.32-72.97,7.67-87.49l-21.62-73.61,35.35-10.14Z" style="fill: rgb(255, 255, 255); transform-origin: 300.226px 351.085px;" id="elqvdqddjfnt9" class="animable"></path></g></g><g id="eli9ckc6eo77b"><path d="M298.81,349.18l-7.49-25.49c-2.4-10.58-5.3-16.53-7.8-20.27,.04-.4-.09-.84-.09-.84-.09,.02-.77-.65-1.8-1.71-.88-1.08-1.67-1.92-2.29-2.66l.15,.39c-4.21-4.53-10.28-11.28-10.28-11.28,0,0,4.61,10.35,10.91,15.28,.47,.37,.87,.65,1.23,.87l17.47,45.73Z" style="isolation: isolate; opacity: 0.2; transform-origin: 284.015px 318.26px;" class="animable"></path></g></g><g id="elm9sqjbph55" class="animable" style="transform-origin: 283.055px 228.455px;"><path d="M309.69,199.35c4.74,9.01,6.6,16.88,6.6,16.88l-18.98,3.58s-4.18-19.61-2.14-24.47c1.89-4.52,3.26-2.36,10.1,.15,1.9,.7,3.47,2.07,4.41,3.86Z" style="fill: rgb(64, 123, 255); transform-origin: 305.45px 206.26px;" id="el1qxxtjnqtuw" class="animable"></path><path d="M260.28,218.23l-5.76-19.64c3.64-5.44,21.68-9.62,21.68-9.62l11.88,.65s4.57,1.02,8.48,2.29c5.22,1.7,8.04,3.07,9.29,5.97,0,0,.54,10.7-.77,23.92-.36,3.64,.45,18.54,1.47,24.78l5.81,15.24c-33.71,14.05-48.97-.49-48.97-.49,.98-2.99,3.29-10.8,3.73-13.71-.32-3.72-.49-5.27-2.07-11.79-.3-1.26-4.23-16.38-4.76-17.6Z" style="fill: rgb(64, 123, 255); transform-origin: 283.44px 228.455px;" id="el2r3vyxfg13r" class="animable"></path><path d="M256.02,197c-4.22,2.3-6.2,17.28-6.2,17.28l14.73,6.39s5.71-12.84,3.27-18.52c-2.07-4.8-6.44-8.08-11.8-5.15Z" style="fill: rgb(64, 123, 255); transform-origin: 259.123px 208.281px;" id="elyws1g7s462" class="animable"></path></g><g id="elmhjufnl8shk" class="animable" style="transform-origin: 324.425px 221.707px;"><g id="el2inum6sp33u" class="animable" style="transform-origin: 336.584px 211.195px;"><path d="M346.99,205.41c.57-2.05-.27-4.32-1.74-5.86-1.47-1.54-3.5-2.44-5.56-3-1.38-.38-2.85-.61-4.25-.29-1.4,.32-2.72,1.29-3.12,2.67-.31,1.07-.05,2.28-.56,3.27-.3,.59-.83,1.02-1.34,1.45s-1.01,.91-1.21,1.54c-.21,.63,0,1.44,.6,1.71l-.39-.19c-.19,2.98-2.58,5.38-3.24,8.29-.62,2.7,.39,5.64,2.3,7.65,1.91,2.02,4.61,3.16,7.36,3.52,2.54,.32,5.22-.02,7.43-1.32,1.16-.69,2.23-1.73,2.46-3.06,.26-1.53-.61-2.99-1.31-4.37-.88-1.74-1.53-3.74-1.02-5.62,.63-2.37,2.93-4.01,3.59-6.38Z" style="fill: rgb(64, 123, 255); transform-origin: 336.584px 211.195px;" id="el6f198kly1wt" class="animable"></path><g id="ela37gt2fgbi"><g style="opacity: 0.3; transform-origin: 336.584px 211.195px;" class="animable"><path d="M346.99,205.41c.57-2.05-.27-4.32-1.74-5.86-1.47-1.54-3.5-2.44-5.56-3-1.38-.38-2.85-.61-4.25-.29-1.4,.32-2.72,1.29-3.12,2.67-.31,1.07-.05,2.28-.56,3.27-.3,.59-.83,1.02-1.34,1.45s-1.01,.91-1.21,1.54c-.21,.63,0,1.44,.6,1.71l-.39-.19c-.19,2.98-2.58,5.38-3.24,8.29-.62,2.7,.39,5.64,2.3,7.65,1.91,2.02,4.61,3.16,7.36,3.52,2.54,.32,5.22-.02,7.43-1.32,1.16-.69,2.23-1.73,2.46-3.06,.26-1.53-.61-2.99-1.31-4.37-.88-1.74-1.53-3.74-1.02-5.62,.63-2.37,2.93-4.01,3.59-6.38Z" style="fill: rgb(255, 255, 255); transform-origin: 336.584px 211.195px;" id="eledh50omy2vu" class="animable"></path></g></g></g><path d="M314.64,216.55l5.38,13.48,9.3-12.25,7.28,3.04s-5.7,9.57-10.2,19.26c-4.79,10.31-11.26,8.52-15.17,1.3-3.58-6.61-9.55-22.39-9.55-22.39l12.97-2.45Z" style="fill: rgb(185, 121, 100); transform-origin: 319.14px 231.923px;" id="elf85jb9bq7lj" class="animable"></path></g><g id="el2mpk9cn8j1y" class="animable" style="transform-origin: 279.139px 179.615px;"><g id="el9u2ee8ftjir" class="animable" style="transform-origin: 286.794px 170.648px;"><path d="M275.46,172.84c1.04,5.22,3.42,15.65-.19,19.14,0,0,1.45,5.22,11.09,5.22,10.59,0,5.03-5.22,5.03-5.22-5.79-1.38-5.67-5.66-4.68-9.69l-11.24-9.45Z" style="fill: rgb(185, 121, 100); transform-origin: 284.059px 185.02px;" id="elqjguthxe7n" class="animable"></path><path d="M297.28,163.27c-.13,0-.25-.05-.34-.14-.18-.18-.18-.48,0-.66,1.08-1.05,2.59-1.52,4.08-1.26,.25,.06,.4,.3,.35,.55v.02c-.06,.25-.3,.41-.55,.36h0c-1.18-.21-2.38,.17-3.23,1.01-.08,.08-.18,.13-.3,.13Z" style="fill: rgb(38, 50, 56); transform-origin: 299.092px 162.21px;" id="elx3uusa0w65i" class="animable"></path><path d="M298.72,169.31c.28,1.94,.83,3.83,1.63,5.62-.94,.39-2,.33-2.89-.14l1.26-5.48Z" style="fill: rgb(162, 78, 63); transform-origin: 298.905px 172.248px;" id="eliukh8wiued" class="animable"></path><path d="M298.32,167.81c-.18,.78,.09,1.51,.6,1.63s1.06-.41,1.18-1.18c.12-.77-.08-1.5-.59-1.63-.51-.13-1,.4-1.19,1.18Z" style="fill: rgb(38, 50, 56); transform-origin: 299.199px 168.034px;" id="elxv7ags46bhe" class="animable"></path><path d="M299.34,166.6l1.99-.09s-1.29,1.24-1.99,.09Z" style="fill: rgb(38, 50, 56); transform-origin: 300.335px 166.799px;" id="el8l0kyg7zuxe" class="animable"></path><path d="M272.83,158.95c-1.62,9.7-2.51,13.77,1.18,19.82,5.55,9.09,17.8,9.03,22.26,0,4.03-8.09,5.99-22.59-2.47-28.61-5.96-4.31-14.28-2.98-18.6,2.98-1.24,1.72-2.06,3.71-2.38,5.81Z" style="fill: rgb(185, 121, 100); transform-origin: 285.574px 166.598px;" id="eli2v28tn5pu8" class="animable"></path><path d="M284.75,145.57c8.09-3.32,16.54-1.1,17.36,7.32,.82,8.41-8.66,16.42-8.66,16.42l-8.7-23.74Z" style="fill: rgb(38, 50, 56); transform-origin: 293.455px 156.703px;" id="elt0z25piuhqe" class="animable"></path><path d="M288.65,167.41c-.22,1.89,.31,3.8,1.48,5.31,1.57,1.97,3.82,.93,4.61-1.31,.72-2.02,.76-5.49-1.41-6.66-1.58-.81-3.52-.19-4.33,1.39-.21,.4-.32,.84-.35,1.28Z" style="fill: rgb(185, 121, 100); transform-origin: 291.892px 169.078px;" id="eldomw4xrp1om" class="animable"></path><g id="elrgayx14njx"><path d="M292.64,172.26c-.06,0-.11-.02-.16-.06-1-.81-1.6-2.11-1.57-3.4,.01-.53,.12-.94,.34-1.27,.29-.44,.78-.68,1.25-.63,.14,.02,.23,.14,.22,.28-.02,.14-.15,.24-.28,.22-.28-.04-.58,.13-.77,.41-.17,.25-.25,.58-.26,1-.02,1.13,.51,2.28,1.39,3,.11,.09,.12,.24,.04,.35-.05,.06-.12,.09-.19,.09Z" style="opacity: 0.3; transform-origin: 291.901px 169.577px;" class="animable"></path></g></g><g id="el9dd5b8akhb9" class="animable" style="transform-origin: 278.899px 179.615px;"><g id="elpge55pj8e5i"><path d="M257.1,201.69c.06,.2,2.35,13.58,6.99,14.8,2.21,.58,19.94,.26,19.94,.26l1.57-2.47,2.67,2.47h11.27l-6.44-11.21,.66-18.31-36.66,14.46Z" style="opacity: 0.3; transform-origin: 278.32px 202.034px;" class="animable"></path></g><path d="M291.72,169.05c3.98-7.58,1.72-21.28-7.07-23.84-7.91-2.31-20.45,.06-19.98,14.21,.47,14.16-2.83,12.67-6.4,21.77-3.75,9.54-2.65,22.11,3.69,32.39h17.52l3.2-4.6,3.79,4.6h15.21c-7.51-10.41-3.02-14.48-2.11-23.93,.91-9.45-11.26-14.08-7.83-20.6Z" style="fill: rgb(38, 50, 56); transform-origin: 278.899px 179.01px;" id="elx62l140nyx" class="animable"></path><path d="M273.71,147.82c-.47-1.08-1.42-2.06-2.6-2.13-.6-.04-1.2,.16-1.77,.36l-.11,.75c-.46,1.17-1.4,2.07-2.11,3.12-.71,1.04-1.18,2.43-.58,3.54,.45,.83,1.41,1.27,2.34,1.37,1.7,.18,3.46-.68,4.41-2.1s1.09-3.33,.41-4.9Z" style="fill: rgb(64, 123, 255); transform-origin: 270.195px 150.269px;" id="ela9t3zrcgm7g" class="animable"></path><path d="M271.66,153.11c.58-1.27,.97-4.15,.71-5.23-.4-1.59-1.51-2.92-2.79-3.95-.65-.52-1.36-.98-2.15-1.25-1.29-.44-2.71-.32-4.04-.02-1.51,.34-3.02,.92-4.11,2.01-1.49,1.48-2.02,3.85-1.3,5.82,.72,1.97,2.65,3.45,4.74,3.62-1.31,.38-2.56,.98-3.67,1.76-.1,.07-.2,.15-.22,.27-.01,.11,.07,.21,.15,.3,.69,.71,1.74,.97,2.73,.91,.99-.06,1.93-.39,2.86-.73-.29,.96-.58,1.91-.86,2.87-.09,.29-.18,.61-.09,.91,.19,.67,1.08,.81,1.77,.69,2.1-.37,3.82-1.97,4.84-3.84,.71-1.29,1.12-2.71,1.43-4.15Z" style="fill: rgb(38, 50, 56); transform-origin: 265.057px 151.76px;" id="elkz1fg1hu6a" class="animable"></path></g></g><g id="eltrodpodaxkr" class="animable" style="transform-origin: 289.745px 255.797px;"><path d="M311.14,255.89c-1.76-4.63-5.92-23.96-5.92-23.96l-18.5,17.53c-3.38,1.73-7.73,1.67-11.5-.26-5.85-2.99-9.53-10.64-9.53-10.64,0,0,.65,4.51,.57,8.75-.08,4.24-2.11,10.55-2.11,10.55,0,0,6.53-1.93,18.04-2.95,11.51-1.03,33.15,13.71,33.15,13.71,0,0-2.44-8.08-4.2-12.71Z" style="fill: rgb(38, 50, 56); transform-origin: 289.745px 250.275px;" id="el8bcz2y14qai" class="animable"></path><path d="M282.51,251.38c-.73-6.24-3.35-12.17-7.59-16.83-.79-.87-1.96-1.79-3.01-.69-.92,.95-.79,2.53-.56,3.72,.6,3.09,2.74,5.96,4.67,8.36,2.28,2.84,5,5.3,8.01,7.34,.8,.54,1.55-.76,.76-1.3-4.34-2.93-8.04-6.84-10.63-11.4-.7-1.23-1.33-2.57-1.46-4-.03-.36-.14-1.67,.41-1.64,.43,.02,1.07,1.02,1.34,1.34,1.66,1.95,3.04,4.14,4.12,6.46,1.26,2.72,2.08,5.65,2.43,8.62,.11,.95,1.61,.96,1.5,0h0Z" style="fill: rgb(38, 50, 56); transform-origin: 278.154px 243.383px;" id="elbuin00suqr" class="animable"></path><path d="M282.22,251.91c2.39-1.25,3.66-3.69,4.6-6.1,1.2-3.07,2.01-6.29,2.41-9.56,.13-1.07,.18-2.42-.8-3.13s-2.22-.25-3.05,.5c-2.09,1.89-3.2,5.02-3.7,7.71-.7,3.77-.32,7.6,.07,11.37,.1,.95,1.6,.96,1.5,0-.36-3.47-.76-7.03-.21-10.51,.24-1.49,.64-2.98,1.27-4.36,.31-.66,.67-1.31,1.08-1.91,.33-.48,1-1.55,1.65-1.64,1.43-.19,.46,3.42,.31,4.2-.31,1.61-.72,3.21-1.23,4.77-.88,2.72-1.99,5.95-4.68,7.36-.86,.45-.1,1.74,.76,1.3h0Z" style="fill: rgb(38, 50, 56); transform-origin: 285.181px 243.091px;" id="eluwfy8bayv0a" class="animable"></path><path d="M279.19,253.92l.73,.24-.55-.72c-1.12,8.45-1.57,16.98-1.35,25.5,.02,.96,1.53,.97,1.5,0-.22-8.52,.23-17.05,1.35-25.5,.04-.33-.27-.63-.55-.72l-.73-.24c-.92-.31-1.31,1.14-.4,1.45h0Z" style="fill: rgb(38, 50, 56); transform-origin: 279.42px 266.05px;" id="elq60v0wqj1bs" class="animable"></path><path d="M279.9,253.9c2.07,8.12,5.07,15.97,8.93,23.4,.45,.86,1.74,.1,1.3-.76-3.8-7.32-6.74-15.05-8.78-23.04-.24-.93-1.69-.54-1.45,.4h0Z" style="fill: rgb(38, 50, 56); transform-origin: 285.047px 265.323px;" id="el5ifkwrdzoa" class="animable"></path></g><path d="M329.39,217.95s-1.64-2.45-1.14-4.84c.5-2.39,.27-4.43,.77-6.18s1.53,.48,1.85,1.77c.31,1.3,.68,2.76,1.61,2.37,.94-.39,6.24-7.31,7.6-7.71,1.36-.4,.85,.99,.85,.99,0,0,1.33-1.65,2.13-1.3,.21,.09,.54,.64,.05,1.48-1.1,1.9-3.62,5.78-3.62,5.78,.14-.23,3.59-4.78,4.2-5.4,.79-.8,1.58-.78,2.03-.31,.64,.68-3.44,6.47-3.44,6.84,0,0,2.24-3.42,3.44-3.32,1.2,.1-.09,2.32-1.61,4.07-1.39,1.6-3.69,5.11-5.26,6.6-1.93,1.84-3.64,2.64-5.96,1.7-2.32-.94-3.48-2.55-3.48-2.55Z" style="fill: rgb(185, 121, 100); transform-origin: 337.174px 211.944px;" id="el23ufzbqnbq8" class="animable"></path></g></g><defs>     <filter id="active" height="200%">         <feMorphology in="SourceAlpha" result="DILATED" operator="dilate" radius="2"></feMorphology>                <feFlood flood-color="#32DFEC" flood-opacity="1" result="PINK"></feFlood>        <feComposite in="PINK" in2="DILATED" operator="in" result="OUTLINE"></feComposite>        <feMerge>            <feMergeNode in="OUTLINE"></feMergeNode>            <feMergeNode in="SourceGraphic"></feMergeNode>        </feMerge>    </filter>    <filter id="hover" height="200%">        <feMorphology in="SourceAlpha" result="DILATED" operator="dilate" radius="2"></feMorphology>                <feFlood flood-color="#ff0000" flood-opacity="0.5" result="PINK"></feFlood>        <feComposite in="PINK" in2="DILATED" operator="in" result="OUTLINE"></feComposite>        <feMerge>            <feMergeNode in="OUTLINE"></feMergeNode>            <feMergeNode in="SourceGraphic"></feMergeNode>        </feMerge>            <feColorMatrix type="matrix" values="0   0   0   0   0                0   1   0   0   0                0   0   0   0   0                0   0   0   1   0 "></feColorMatrix>    </filter></defs></svg>