<?xml version="1.0" encoding="utf-8"?>
<!-- Generator: Adobe Illustrator 24.0.1, SVG Export Plug-In . SVG Version: 6.00 Build 0)  -->
<svg version="1.1" id="Layer_1" xmlns="http://www.w3.org/2000/svg" xmlns:xlink="http://www.w3.org/1999/xlink" x="0px" y="0px"
	 viewBox="0 0 3000 2722.33" style="enable-background:new 0 0 3000 2722.33;" xml:space="preserve">
<style type="text/css">
	.st0{fill:#020A38;}
	.st1{fill:#FFFFFF;}
	.st2{fill:none;stroke:#FFFFFF;stroke-width:16;stroke-miterlimit:10;}
</style>
<path class="st0" d="M2732.1,2630.47H251.75c-76.34,0-138.23-61.89-138.23-138.23V263.55c0-76.34,61.89-138.23,138.23-138.23H2732.1
	c76.34,0,138.23,61.89,138.23,138.23v2228.69C2870.33,2568.58,2808.45,2630.47,2732.1,2630.47z"/>
<g>
	<g>
		<path class="st1" d="M2411.76,1327.61l-303.53-356.15l-0.46-0.51c0.32-120.71,0.3-243.33,0.27-361.96l-0.03-161.43h-319.37v202.01
			l-286.96-287.34L591.51,1426.29h208.92v373.56h0.3V2211H2288.6v-785.79h206.33L2411.76,1327.61z M2280.53,1327.61h-84.57v785.04
			H889.24v-785.04H787.61l721.97-833.47l377.74,393.88V546.24h122.06v62.74c0.03,119.71,0.03,243.49-0.3,365.19
			c-0.05,24.48,8.15,44.96,25.15,62.61l263.57,290.42L2280.53,1327.61z"/>
	</g>
	<g>
		<g>
			<g>
				<path class="st1" d="M1324.51,1055.8c54.68-2.87,101.94-22.97,140.66-61.77c38.69-38.77,58.75-86.05,61.5-140.71
					c2.78,54.7,22.81,101.96,61.53,140.74c38.69,38.75,85.89,58.82,138.65,61.59c-8.46,1.1-18.8,2.18-29.05,3.83
					c-10.36,1.67-20.46,4.55-30.37,8.04c-9.9,3.49-19.51,7.65-28.79,12.58c-9.28,4.93-18.14,10.51-26.6,16.74
					c-8.46,6.23-16.4,13.08-23.83,20.51c-7.43,7.43-14.26,15.37-20.5,23.83c-6.24,8.45-11.83,17.31-16.74,26.6
					c-4.91,9.29-9.1,18.88-12.58,28.8c-3.48,9.91-6.12,20.05-8.08,30.36c-1.96,10.29-3.08,20.67-3.57,31.16
					c-2.9-54.66-22.96-101.93-61.71-140.67C1426.32,1078.73,1379.11,1058.66,1324.51,1055.8z"/>
				<path class="st1" d="M1250.62,898.46c19.11-1.51,36.1-8.04,50.38-20.93c14.37-12.97,22.52-29.14,24.22-48.55
					c1.71,19.32,9.8,35.46,24.08,48.42c14.26,12.93,31.24,19.5,50.63,20.94c-0.51,0.18-0.76,0.3-1.02,0.36
					c-0.28,0.06-0.57,0.06-0.85,0.08c-28.42,2.81-50.4,15.84-64.61,40.97c-4.69,8.29-7.11,17.36-7.96,26.85
					c-0.04,0.45-0.07,0.91-0.25,1.42c-1.68-19.39-9.81-35.6-24.16-48.58C1286.8,906.52,1269.79,899.88,1250.62,898.46z"/>
				<path class="st1" d="M1837.69,1197.24c12.42-11.39,20.66-25.1,23.57-41.75c2.93-16.76-0.16-32.36-9.49-46.73
					c11.64,12.46,25.97,19.26,42.87,20.51c16.87,1.24,32.19-3.39,46.4-12.89c-0.25,0.4-0.36,0.62-0.51,0.8
					c-0.16,0.19-0.36,0.35-0.54,0.52c-18.17,17.32-26.34,38.23-22.59,63.33c1.24,8.28,4.46,15.87,9.01,22.9
					c0.22,0.33,0.44,0.66,0.59,1.12c-11.65-12.53-26.05-19.35-43.01-20.58C1867.11,1183.25,1851.74,1187.86,1837.69,1197.24z"/>
				<path class="st1" d="M1097.67,1096.93c7.72,2.43,15.4,2.57,23.03-0.21c7.68-2.8,13.43-7.83,17.17-15.16
					c-2.39,7.83-1.78,15.43,1.76,22.76c3.53,7.32,9.13,12.58,16.5,16.21c-0.23-0.01-0.34,0-0.46-0.02c-0.12-0.02-0.23-0.07-0.35-0.1
					c-11.56-3.4-22.23-1.79-31.77,5.8c-3.15,2.5-5.53,5.67-7.37,9.24c-0.09,0.17-0.17,0.34-0.32,0.51
					c2.42-7.85,1.8-15.48-1.76-22.83C1110.55,1105.81,1104.94,1100.52,1097.67,1096.93z"/>
				<path class="st1" d="M1327.59,1216.02c-17.31,2.74-28.6,11.95-31.93,29.53c-3.32-17.45-14.52-26.71-31.9-29.53
					c17.29-2.86,28.56-12.03,31.89-29.58C1298.95,1204.05,1310.32,1213.22,1327.59,1216.02z"/>
				<path class="st1" d="M1433.68,753.04c-12.84,2.38-21.37,9.21-24.06,22.75c-2.75-13.52-11.32-20.49-24.54-22.68
					c13.21-2.18,21.73-9.13,24.59-22.4c0.98,6.05,3.67,11.17,8.23,15.26C1422.4,750,1427.71,752.24,1433.68,753.04z"/>
				<path class="st1" d="M1712.83,944.41c13.41-2.21,21.96-9.24,24.57-22.81c2.58,13.61,11.15,20.57,24.51,22.82
					c-13.29,2.26-21.87,9.2-24.51,22.74C1734.8,953.69,1726.23,946.69,1712.83,944.41z"/>
				<path class="st1" d="M1686.97,1221.92c-2.2-10.79-8.89-16.35-19.53-18.22c10.56-1.89,17.36-7.42,19.52-18.26
					c2.15,10.71,8.86,16.33,19.55,18.25C1695.84,1205.56,1689.14,1211.18,1686.97,1221.92z"/>
			</g>
		</g>
		<g>
			<g>
				<g>
					<path class="st1" d="M2388.21,1352.34"/>
				</g>
			</g>
		</g>
	</g>
	<rect x="1359.4" y="1524.37" class="st2" width="345.48" height="626.05"/>
	<g>
		<rect x="1138.08" y="1645.3" class="st1" width="109.37" height="109.37"/>
		<rect x="1006.33" y="1645.3" class="st1" width="109.37" height="109.37"/>
		<rect x="1138.08" y="1777.06" class="st1" width="109.37" height="109.37"/>
		<rect x="1006.33" y="1777.06" class="st1" width="109.37" height="109.37"/>
	</g>
	<g>
		<rect x="1952.24" y="1645.3" class="st1" width="109.37" height="109.37"/>
		<rect x="1820.49" y="1645.3" class="st1" width="109.37" height="109.37"/>
		<rect x="1952.24" y="1777.06" class="st1" width="109.37" height="109.37"/>
		<rect x="1820.49" y="1777.06" class="st1" width="109.37" height="109.37"/>
	</g>
</g>
</svg>
